<svg width="72" height="72" viewBox="0 0 72 72" fill="none" xmlns="http://www.w3.org/2000/svg">
<circle cx="36" cy="36" r="36" fill="#FD9494"/>
<path d="M35.1832 46.4773C39.8601 46.4773 43.1839 44.3466 43.1839 40.1598V23.6364H38.6776V26.3849H38.5071C37.8999 25.0533 36.5682 23.4233 33.8303 23.4233C30.2401 23.4233 27.2038 26.2145 27.2038 31.7862C27.2038 37.2301 30.1548 39.7656 33.8409 39.7656C36.451 39.7656 37.9105 38.4553 38.5071 37.1023H38.6989V40.0959C38.6989 42.3438 37.2607 43.2173 35.2898 43.2173C33.2869 43.2173 32.2749 42.3438 31.902 41.353L27.7045 41.9176C28.2479 44.4957 30.7727 46.4773 35.1832 46.4773ZM35.2791 36.3565C33.0526 36.3565 31.8381 34.5881 31.8381 31.7649C31.8381 28.9844 33.0312 27.0348 35.2791 27.0348C37.4844 27.0348 38.7202 28.8991 38.7202 31.7649C38.7202 34.652 37.4631 36.3565 35.2791 36.3565Z" fill="white"/>
</svg>
