<svg width="465" height="340" viewBox="0 0 465 340" fill="none" xmlns="http://www.w3.org/2000/svg">
<path d="M464.928 297.435H0V297.667H464.928V297.435Z" fill="#E0E0E0"/>
<path d="M394.361 310.481H384.496V310.713H394.361V310.481Z" fill="#E0E0E0"/>
<path d="M377.67 310.592H337.547V310.825H377.67V310.592Z" fill="#E0E0E0"/>
<path d="M287.949 308.379H220.236V308.612H287.949V308.379Z" fill="#E0E0E0"/>
<path d="M181.285 312.415H159.796V312.647H181.285V312.415Z" fill="#E0E0E0"/>
<path d="M109.677 308.491H80.0885V308.723H109.677V308.491Z" fill="#E0E0E0"/>
<path d="M142.491 308.491H114.837V308.723H142.491V308.491Z" fill="#E0E0E0"/>
<path d="M88.9501 304.428H60.7103V304.66H88.9501V304.428Z" fill="#E0E0E0"/>
<path d="M165.821 206.504C166.333 206.504 166.844 206.504 167.365 206.551C170.605 206.78 173.754 207.722 176.587 209.311C179.42 210.901 181.866 213.097 183.75 215.743C185.634 218.388 186.91 221.418 187.485 224.615C188.06 227.812 187.921 231.096 187.078 234.233C184.676 243.599 183.516 253.241 183.628 262.909V291.065C183.628 292.052 183.236 292.998 182.539 293.695C181.841 294.393 180.895 294.785 179.909 294.785H90.5587V206.504H165.821Z" fill="#E6E6E6"/>
<path d="M68.5491 228.514C68.5518 225.381 69.2233 222.285 70.5186 219.433C71.8139 216.581 73.7031 214.038 76.06 211.974C78.417 209.91 81.1873 208.374 84.1858 207.467C87.1842 206.56 90.3418 206.303 93.4474 206.714C96.553 207.125 99.535 208.195 102.194 209.851C104.853 211.507 107.128 213.711 108.867 216.317C110.606 218.923 111.768 221.87 112.277 224.961C112.785 228.052 112.628 231.216 111.815 234.242C109.413 243.608 108.253 253.25 108.366 262.919V291.075C108.366 292.061 107.974 293.007 107.276 293.705C106.579 294.402 105.633 294.794 104.646 294.794H76.4529C75.4664 294.794 74.5204 294.402 73.8228 293.705C73.1253 293.007 72.7334 292.061 72.7334 291.075V261.264C72.8148 252.197 71.67 243.16 69.3302 234.4C68.8049 232.482 68.5422 230.502 68.5491 228.514Z" fill="#F0F0F0"/>
<path d="M120.891 294.766H233.896V241.179H120.891V294.766Z" fill="#E6E6E6"/>
<path d="M300.195 253.295L160.038 253.295V193.654C160.038 189.234 161.793 184.996 164.918 181.871C168.043 178.746 172.281 176.991 176.701 176.991H283.56C287.974 176.998 292.205 178.757 295.324 181.881C298.443 185.005 300.195 189.239 300.195 193.654V253.295Z" fill="#E0E0E0"/>
<path d="M279.217 253.295L139.069 253.295V192.854C139.069 188.649 140.74 184.617 143.713 181.644C146.686 178.67 150.719 177 154.923 177H263.363C267.568 177 271.601 178.67 274.574 181.644C277.547 184.617 279.217 188.649 279.217 192.854V253.295Z" fill="#F0F0F0"/>
<path d="M228.642 258.102H121.923C120.64 258.102 119.411 257.593 118.504 256.686C117.597 255.779 117.088 254.549 117.088 253.267V241.114C117.088 239.831 117.597 238.601 118.504 237.695C119.411 236.788 120.64 236.278 121.923 236.278H228.642C229.025 236.278 229.391 236.43 229.662 236.7C229.932 236.971 230.084 237.337 230.084 237.72L230.084 256.661C230.084 257.043 229.932 257.41 229.662 257.68C229.391 257.95 229.025 258.102 228.642 258.102Z" fill="#E0E0E0"/>
<path d="M308.099 206.504C308.61 206.504 309.131 206.504 309.651 206.551C312.891 206.78 316.041 207.722 318.874 209.311C321.706 210.901 324.152 213.097 326.037 215.743C327.921 218.388 329.196 221.418 329.772 224.615C330.347 227.812 330.208 231.096 329.364 234.233C326.955 243.598 325.792 253.24 325.905 262.909V291.065C325.905 292.052 325.513 292.998 324.816 293.695C324.118 294.393 323.172 294.785 322.186 294.785H232.845V206.504H308.099Z" fill="#E6E6E6"/>
<path d="M210.826 228.514C210.86 222.821 213.097 217.362 217.069 213.282C221.041 209.203 226.438 206.821 232.128 206.636C237.819 206.451 243.36 208.477 247.588 212.289C251.817 216.101 254.405 221.403 254.809 227.082C254.963 229.491 254.724 231.909 254.102 234.242C251.7 243.608 250.54 253.25 250.652 262.919V291.075C250.652 292.061 250.26 293.007 249.563 293.705C248.865 294.402 247.919 294.794 246.933 294.794H218.73C217.744 294.794 216.798 294.402 216.1 293.705C215.403 293.007 215.011 292.061 215.011 291.075V261.264C215.093 252.196 213.945 243.159 211.598 234.4C211.076 232.482 210.816 230.502 210.826 228.514Z" fill="#F0F0F0"/>
<path d="M92.1301 297.444H306.527C306.88 297.445 307.229 297.377 307.555 297.243C307.881 297.109 308.177 296.912 308.427 296.663C308.676 296.414 308.875 296.119 309.01 295.793C309.145 295.468 309.214 295.119 309.214 294.766H89.4521C89.4521 295.477 89.7343 296.158 90.2365 296.66C90.7387 297.162 91.4199 297.444 92.1301 297.444Z" fill="#E0E0E0"/>
<path d="M383.649 293.641H402.935V192.835H383.649V293.641Z" fill="#E6E6E6"/>
<path d="M315.175 297.435H399.234V293.65H315.175V297.435Z" fill="#E6E6E6"/>
<path d="M383.649 192.835H311.474V293.641H383.649V192.835Z" fill="#F0F0F0"/>
<path d="M380.916 196.155H314.208V260.296H380.916V196.155Z" fill="#E6E6E6"/>
<path d="M380.916 263.021H314.208V286.137H380.916V263.021Z" fill="#E6E6E6"/>
<path d="M328.276 196.155H314.208V260.296H328.276V196.155Z" fill="#E0E0E0"/>
<path d="M328.276 263.021H314.208V286.137H328.276V263.021Z" fill="#E0E0E0"/>
<path d="M159.331 145.71L326.556 145.71V24.4012L159.331 24.4012L159.331 145.71Z" fill="#E0E0E0"/>
<path d="M147.354 145.71L323.497 145.71V24.4012L147.354 24.4012L147.354 145.71Z" fill="#F0F0F0"/>
<path d="M319.768 141.972V28.1393L151.102 28.1393V141.972H319.768Z" fill="#FAFAFA"/>
<path d="M242.744 85.9169C245.37 69.5801 234.254 54.2081 217.918 51.5826C201.581 48.9571 186.209 60.0723 183.583 76.4091C180.958 92.7459 192.073 108.118 208.41 110.743C224.747 113.369 240.119 102.254 242.744 85.9169Z" fill="#E0E0E0"/>
<path d="M163.85 115.741C166.574 112.301 172.042 109.65 176.087 109.818C176.684 109.796 177.279 109.894 177.837 110.104C178.396 110.315 178.907 110.635 179.341 111.045C186.724 106.768 195.223 104.146 202.244 104.434C205.814 104.573 208.585 105.457 210.501 106.898C218.433 100.445 228.54 95.8607 235.877 95.8607C240.042 95.8607 242.627 97.3485 243.548 99.8126C251.684 95.4795 260.044 92.8201 266.794 92.8201C277.543 92.8201 281.03 99.5801 276.632 109.083C278.399 110.878 286.861 113.379 286.526 116.373H163.385C163.534 116.141 163.655 115.927 163.85 115.741Z" fill="#F0F0F0"/>
<path d="M206.242 72.0936C206.742 72.0732 207.24 72.1763 207.69 72.3936C208.141 72.6109 208.532 72.9357 208.827 73.3396C215.094 68.9971 222.161 66.3285 227.852 66.626C230.283 66.6165 232.632 67.5076 234.445 69.1273C241.251 62.6183 249.75 57.9691 255.72 57.9691C259.123 57.9691 261.15 59.4754 261.755 61.9767C268.626 57.5785 275.582 54.8726 281.086 54.8726C287.893 54.8726 290.906 59.0291 289.966 65.4079C293.249 63.5482 296.475 62.4603 299.098 62.4603C302.733 62.4603 304.444 64.5524 304.147 67.8441C304.463 67.8441 304.779 67.8441 305.077 67.8906C310.656 68.4392 312.757 72.6887 310.089 77.5518H196.349C198.841 74.3252 203.127 71.9355 206.242 72.0936Z" fill="#F0F0F0"/>
<path d="M114.26 73.1773C116.763 56.8212 105.533 41.5331 89.177 39.0302C72.8209 36.5274 57.5328 47.7577 55.0299 64.1137C52.5271 80.4698 63.7574 95.7579 80.1134 98.2608C96.4695 100.764 111.758 89.5333 114.26 73.1773Z" fill="#E0E0E0"/>
<path d="M112.507 73.4117C115.132 57.0749 104.017 41.7029 87.68 39.0774C71.3432 36.4519 55.9712 47.5671 53.3457 63.9039C50.7202 80.2407 61.8354 95.6127 78.1722 98.2382C94.509 100.864 109.881 89.7485 112.507 73.4117Z" fill="#F0F0F0"/>
<path d="M109.119 68.6345C109.128 74.8342 106.941 80.8368 102.946 85.5777C98.951 90.3185 93.4058 93.4911 87.2942 94.5326C81.1827 95.5742 74.8997 94.4174 69.5598 91.2675C64.22 88.1175 60.1684 83.178 58.1237 77.3252C56.0791 71.4724 56.1735 65.0845 58.3904 59.2947C60.6072 53.5049 64.8031 48.6874 70.2338 45.6967C75.6645 42.7061 81.9789 41.7356 88.057 42.9574C94.1351 44.1793 99.584 47.5144 103.437 52.3713L103.512 52.455C107.151 57.0617 109.127 62.7634 109.119 68.6345Z" fill="#E0E0E0"/>
<path d="M109.119 68.6345C109.111 73.9164 107.507 79.0726 104.518 83.4271C101.529 87.7816 97.2932 91.1311 92.3669 93.0362C87.4406 94.9414 82.0535 95.3134 76.9122 94.1033C71.7708 92.8932 67.1151 90.1576 63.5557 86.2553C59.357 80.929 57.3879 74.1818 58.0626 67.4332C58.7374 60.6847 62.0034 54.4609 67.1736 50.0713C72.3437 45.6818 79.0148 43.4687 85.7835 43.8977C92.5521 44.3266 98.8905 47.3642 103.465 52.3713L103.539 52.455C107.169 57.0654 109.135 62.7667 109.119 68.6345Z" fill="#FAFAFA"/>
<path d="M83.4917 71.173C83.1418 71.1694 82.8 71.0672 82.5055 70.878C82.2111 70.6889 81.976 70.4205 81.8273 70.1037L75.1509 55.8583C75.0417 55.6366 74.9778 55.3953 74.9629 55.1486C74.9479 54.9019 74.9824 54.6547 75.0641 54.4215C75.1458 54.1882 75.2732 53.9736 75.4388 53.7902C75.6044 53.6067 75.805 53.4581 76.0287 53.3531C76.2524 53.248 76.4948 53.1886 76.7417 53.1783C76.9887 53.168 77.2352 53.207 77.4668 53.2931C77.6985 53.3792 77.9107 53.5106 78.091 53.6796C78.2713 53.8486 78.4162 54.0519 78.517 54.2775L84.4309 66.9236L92.9763 63.4645C93.4338 63.2795 93.946 63.2839 94.4002 63.4766C94.8545 63.6693 95.2136 64.0345 95.3986 64.492C95.5835 64.9495 95.5792 65.4617 95.3865 65.9159C95.1938 66.3702 94.8285 66.7293 94.3711 66.9143L84.1891 71.0335C83.9678 71.1245 83.731 71.1718 83.4917 71.173Z" fill="#E0E0E0"/>
<path d="M346.334 236.111C353.271 237.041 357.567 221.977 342.243 209.201C343.117 223.995 334.228 234.437 346.334 236.111Z" fill="#F0F0F0"/>
<path d="M350.705 245.642C360.775 238.584 353.885 213.934 322.734 215.719C336.208 233.833 333.158 257.944 350.705 245.642Z" fill="#F0F0F0"/>
<path d="M347.153 245.475C340.467 238.268 349.989 220.136 374.053 226.757C360.468 238.696 358.822 258.009 347.153 245.475Z" fill="#F0F0F0"/>
<path d="M336.794 260.297H357.483L359.045 246.544H335.232L336.794 260.297Z" fill="#E0E0E0"/>
<path d="M333.698 248.999H360.589V245.967H333.698V248.999Z" fill="#E0E0E0"/>
<path d="M232.464 339.427C332.035 339.427 412.754 334.715 412.754 328.901C412.754 323.088 332.035 318.375 232.464 318.375C132.893 318.375 52.1742 323.088 52.1742 328.901C52.1742 334.715 132.893 339.427 232.464 339.427Z" fill="#F5F5F5"/>
<path d="M360.432 302.508L353.791 305.079L359.512 319.858L366.153 317.287L360.432 302.508Z" fill="#E4897B"/>
<path d="M390.121 321.751H383.12L380.544 305.543H387.546L390.121 321.751Z" fill="#E4897B"/>
<path d="M382.664 320.942H390.54C390.675 320.94 390.807 320.987 390.911 321.074C391.015 321.161 391.085 321.282 391.107 321.416L392.13 327.646C392.151 327.802 392.139 327.96 392.093 328.11C392.048 328.261 391.97 328.399 391.866 328.517C391.762 328.635 391.633 328.728 391.489 328.791C391.346 328.854 391.19 328.886 391.033 328.883C388.29 328.836 386.96 328.678 383.501 328.678C381.371 328.678 374.946 328.901 372.008 328.901C369.069 328.901 368.856 325.991 370.074 325.73C375.532 324.55 379.698 322.941 381.511 321.369C381.836 321.1 382.242 320.949 382.664 320.942Z" fill="#263238"/>
<path d="M359.362 318.45L366.801 316.283C366.931 316.24 367.072 316.245 367.199 316.298C367.325 316.351 367.428 316.448 367.489 316.571L370.278 322.151C370.345 322.292 370.379 322.446 370.379 322.602C370.379 322.759 370.344 322.913 370.278 323.054C370.211 323.195 370.114 323.32 369.994 323.42C369.873 323.519 369.732 323.59 369.581 323.629C366.884 324.364 365.062 324.829 361.686 325.814C359.343 326.493 356.972 327.6 354.657 328.334C353.067 328.846 349.31 328.864 347.367 328.864C344.493 328.864 343.852 325.833 345.079 325.693C348.194 325.34 348.622 325.507 350.342 324.643C353.152 323.409 355.699 321.647 357.846 319.454C358.256 318.994 358.778 318.648 359.362 318.45Z" fill="#263238"/>
<path d="M348.975 95.0703C348.399 96.5302 347.85 97.8041 347.227 99.1431C346.604 100.482 345.981 101.765 345.321 103.058C343.985 105.68 342.504 108.225 340.885 110.683C339.196 113.3 337.239 115.733 335.046 117.945C333.8 119.206 332.407 120.314 330.899 121.246C329.006 122.423 326.84 123.09 324.613 123.18C323.99 123.196 323.367 123.153 322.753 123.05C322.216 122.962 321.685 122.841 321.163 122.687C320.276 122.417 319.412 122.078 318.578 121.674C317.149 120.956 315.773 120.139 314.459 119.228C312.048 117.552 309.749 115.719 307.578 113.742C303.361 109.925 299.427 105.807 295.806 101.421L299.414 97.7948C303.682 101.161 308.061 104.527 312.432 107.595C314.561 109.106 316.764 110.509 319.034 111.798C320.058 112.382 321.124 112.889 322.223 113.314C322.826 113.616 323.493 113.766 324.167 113.751C324.699 113.593 325.197 113.338 325.636 112.998C326.44 112.403 327.182 111.727 327.849 110.98C329.449 109.148 330.881 107.175 332.126 105.085C333.465 102.909 334.72 100.612 335.911 98.269C336.506 97.0974 337.082 95.9072 337.64 94.717C338.198 93.5268 338.765 92.2715 339.239 91.1742L348.975 95.0703Z" fill="#E4897B"/>
<path d="M300.409 100.036L299.414 94.5217L292.319 98.8734C292.319 98.8734 294.56 102.351 296.922 102.407L300.409 100.036Z" fill="#E4897B"/>
<path d="M296.104 91.2021L290.562 94.968L292.31 98.8734L299.405 94.5217L296.104 91.2021Z" fill="#E4897B"/>
<path d="M352.23 87.9476C353.941 94.3078 344.623 107.084 344.623 107.084L332.386 100.222C332.386 100.222 334.665 94.968 337.464 89.6214C341.973 80.983 350.268 80.6947 352.23 87.9476Z" fill="#FD9494"/>
<path opacity="0.6" d="M352.23 87.9476C353.941 94.3078 344.623 107.084 344.623 107.084L332.386 100.222C332.386 100.222 334.665 94.968 337.464 89.6214C341.973 80.983 350.268 80.6947 352.23 87.9476Z" fill="#FAFAFA"/>
<path d="M337.268 102.946L342.076 105.643L342.913 90.8953C340.123 93.0432 338.142 99.515 337.268 102.946Z" fill="#FD9494"/>
<path opacity="0.3" d="M337.268 102.946L342.076 105.643L342.913 90.8953C340.123 93.0432 338.142 99.515 337.268 102.946Z" fill="#FAFAFA"/>
<path d="M361.424 303.766L354.762 306.338L357.712 313.98L364.374 311.408L361.424 303.766Z" fill="#CE6F64"/>
<path d="M387.555 305.543H380.544L381.874 313.903H388.875L387.555 305.543Z" fill="#CE6F64"/>
<path d="M383.436 82.7962C376.304 109.883 378.275 137.927 377.68 143.674H340.235C334.655 104.304 344.196 83.1589 344.196 83.1589C344.196 83.1589 347.171 82.3592 351.002 81.7362L352.072 81.5781C353.048 81.4386 354.052 81.3085 355.075 81.2155C360.377 80.9084 365.692 80.9084 370.994 81.2155C371.822 81.2155 372.659 81.3178 373.477 81.3828L374.453 81.4758C379.279 81.9501 383.436 82.7962 383.436 82.7962Z" fill="#FD9494"/>
<path opacity="0.6" d="M383.436 82.7962C376.304 109.883 378.275 137.927 377.68 143.674H340.235C334.655 104.304 344.196 83.1589 344.196 83.1589C344.196 83.1589 347.171 82.3592 351.002 81.7362L352.072 81.5781C353.048 81.4386 354.052 81.3085 355.075 81.2155C360.377 80.9084 365.692 80.9084 370.994 81.2155C371.822 81.2155 372.659 81.3178 373.477 81.3828L374.453 81.4758C379.279 81.9501 383.436 82.7962 383.436 82.7962Z" fill="#FAFAFA"/>
<path d="M339.044 133.018C339.174 134.698 339.339 136.421 339.537 138.188L367.433 129.15C371.781 127.853 375.559 125.115 378.145 121.385C378.247 118.903 378.387 116.29 378.6 113.565C378.693 112.235 378.814 110.878 378.935 109.502C379.056 108.126 379.223 106.61 379.391 105.141L339.044 133.018Z" fill="#FD9494"/>
<path opacity="0.3" d="M339.044 133.018C339.174 134.698 339.339 136.421 339.537 138.188L367.433 129.15C371.781 127.853 375.559 125.115 378.145 121.385C378.247 118.903 378.387 116.29 378.6 113.565C378.693 112.235 378.814 110.878 378.935 109.502C379.056 108.126 379.223 106.61 379.391 105.141L339.044 133.018Z" fill="#FAFAFA"/>
<path d="M373.477 81.3828L373.105 82.1825C372.984 82.4522 370.018 88.738 359.111 88.738C357.66 88.738 353.243 88.738 351.858 85.6509C351.593 84.9978 351.474 84.2945 351.511 83.5907C351.548 82.8869 351.74 82.1998 352.072 81.5781L351.002 81.7362C350.714 82.4155 350.565 83.1461 350.565 83.8842C350.565 84.6222 350.714 85.3528 351.002 86.0321C352.629 89.6679 357.511 89.6679 359.101 89.6679C370.594 89.6679 373.812 82.852 373.979 82.5638L374.472 81.4758L373.477 81.3828Z" fill="#FAFAFA"/>
<path d="M370.464 63.2878C369.162 68.4113 367.609 77.7936 370.994 81.2155C370.994 81.2155 368.632 86.4134 359.111 86.4134C350.416 86.4134 355.075 81.2155 355.075 81.2155C360.868 79.8486 360.97 75.6363 360.208 71.6379L370.464 63.2878Z" fill="#E4897B"/>
<path d="M366.28 66.6911L360.208 71.6286C360.401 72.5467 360.509 73.4804 360.533 74.4182C362.309 76.1849 365.871 71.7123 366.243 69.4249C366.418 68.5232 366.431 67.5973 366.28 66.6911Z" fill="#CE6F64"/>
<path d="M349.263 60.8051C349.411 61.6354 349.73 62.4261 350.199 63.1271C350.668 63.8281 351.277 64.4243 351.988 64.8779C353.922 66.1053 355.707 64.5524 355.791 62.3952C355.903 60.4611 355.028 57.4855 352.769 57.1322C352.277 57.0587 351.774 57.1046 351.303 57.266C350.832 57.4274 350.407 57.6995 350.064 58.0596C349.72 58.4196 349.468 58.8569 349.329 59.3347C349.189 59.8126 349.167 60.3168 349.263 60.8051Z" fill="#CE6F64"/>
<path d="M354.405 47.285C350.826 48.6333 348.65 62.3394 352.871 64.6733C357.093 67.0073 361.184 44.7372 354.405 47.285Z" fill="#263238"/>
<path d="M348.361 52.0366C351.002 54.8261 364.467 51.4787 364.978 46.6806C365.489 41.8825 343.368 46.7922 348.361 52.0366Z" fill="#263238"/>
<path d="M370.269 54.9749C370.018 61.9581 370.222 66.0402 366.819 69.8526C365.775 71.1247 364.399 72.0836 362.844 72.6235C361.289 73.1635 359.615 73.2634 358.007 72.9123C356.399 72.5613 354.919 71.7729 353.731 70.6341C352.542 69.4953 351.691 68.0503 351.272 66.4586C349.635 60.3402 350.342 49.9537 357.018 46.6248C358.419 45.8556 360 45.4753 361.598 45.5234C363.195 45.5714 364.75 46.0461 366.102 46.8981C367.454 47.7501 368.554 48.9484 369.286 50.3687C370.019 51.7889 370.358 53.3793 370.269 54.9749Z" fill="#E4897B"/>
<path d="M366.057 40.4784C370.994 39.2603 372.073 40.6551 372.296 44.0305C372.519 47.4059 377.02 46.4667 375.504 51.5623C374.797 53.9707 372.984 53.7661 374.091 56.6022C375.355 59.866 367.851 63.8178 366.085 63.8085C363.174 63.8085 363.816 57.7459 366.187 52.2318C367.963 48.1033 363.537 49.247 358.46 50.7906C347.022 54.2589 339.444 44.2816 346.539 39.5021C350.296 36.9636 360.626 42.2266 366.057 40.4784Z" fill="#263238"/>
<path d="M373.579 62.3766C372.691 63.9268 371.255 65.088 369.553 65.6311C367.312 66.3192 366.261 64.3479 366.94 62.2185C367.554 60.2937 369.469 57.625 371.682 57.8761C373.895 58.1271 374.658 60.4518 373.579 62.3766Z" fill="#E4897B"/>
<path d="M340.235 143.637C340.235 143.637 333.949 199.884 333.456 221.233C332.944 243.448 354.759 312.731 354.759 312.731L365.917 308.035C365.917 308.035 352.899 244.74 354.759 222.935C356.693 199.196 364.848 143.637 364.848 143.637H340.235Z" fill="#263238"/>
<path d="M355.847 159.119C350.844 169.515 354.219 190.064 356.935 202.246C357.967 193.654 359.185 184.318 360.347 175.68C360.236 162.392 359.204 152.145 355.847 159.119Z" fill="#182137"/>
<path d="M365.434 304.428C365.48 304.428 366.754 307.989 366.754 307.989L353.885 313.391L351.848 309.625L365.434 304.428Z" fill="#FD9494"/>
<path opacity="0.6" d="M365.434 304.428C365.48 304.428 366.754 307.989 366.754 307.989L353.885 313.391L351.848 309.625L365.434 304.428Z" fill="#FAFAFA"/>
<path d="M353.513 143.637C353.513 143.637 358.32 197.131 361.51 217.179C364.997 239.133 378.703 312.248 378.703 312.248H391.535C391.535 312.248 383.845 240.9 382.394 219.169C380.823 195.579 377.68 143.637 377.68 143.637H353.513Z" fill="#263238"/>
<path d="M391.73 308.407C391.777 308.407 392.158 312.527 392.158 312.527H378.061L377.057 307.877L391.73 308.407Z" fill="#FD9494"/>
<path opacity="0.6" d="M391.73 308.407C391.777 308.407 392.158 312.527 392.158 312.527H378.061L377.057 307.877L391.73 308.407Z" fill="#FAFAFA"/>
<path d="M386.82 304.706C386.791 304.706 386.762 304.695 386.741 304.674C386.72 304.653 386.709 304.624 386.709 304.595C386.634 303.953 379.707 239.505 378.405 219.978C376.992 198.787 374.146 151.81 374.118 151.336C374.117 151.32 374.119 151.304 374.124 151.289C374.129 151.274 374.137 151.26 374.147 151.248C374.158 151.236 374.17 151.226 374.184 151.218C374.199 151.211 374.214 151.207 374.23 151.206C374.261 151.206 374.29 151.217 374.312 151.238C374.335 151.259 374.349 151.287 374.351 151.317C374.351 151.792 377.224 198.74 378.638 219.959C379.939 239.486 386.867 303.888 386.941 304.576C386.944 304.592 386.943 304.607 386.939 304.623C386.936 304.638 386.929 304.652 386.919 304.664C386.909 304.676 386.897 304.686 386.883 304.694C386.87 304.701 386.854 304.705 386.839 304.706H386.82Z" fill="#FD9494"/>
<path opacity="0.5" d="M386.82 304.706C386.791 304.706 386.762 304.695 386.741 304.674C386.72 304.653 386.709 304.624 386.709 304.595C386.634 303.953 379.707 239.505 378.405 219.978C376.992 198.787 374.146 151.81 374.118 151.336C374.117 151.32 374.119 151.304 374.124 151.289C374.129 151.274 374.137 151.26 374.147 151.248C374.158 151.236 374.17 151.226 374.184 151.218C374.199 151.211 374.214 151.207 374.23 151.206C374.261 151.206 374.29 151.217 374.312 151.238C374.335 151.259 374.349 151.287 374.351 151.317C374.351 151.792 377.224 198.74 378.638 219.959C379.939 239.486 386.867 303.888 386.941 304.576C386.944 304.592 386.943 304.607 386.939 304.623C386.936 304.638 386.929 304.652 386.919 304.664C386.909 304.676 386.897 304.686 386.883 304.694C386.87 304.701 386.854 304.705 386.839 304.706H386.82Z" fill="black"/>
<path d="M359.855 57.7924C359.855 58.3596 359.585 58.8431 359.213 58.871C358.841 58.8989 358.534 58.4712 358.525 57.9412C358.516 57.4111 358.795 56.8904 359.166 56.8625C359.538 56.8346 359.855 57.2252 359.855 57.7924Z" fill="#263238"/>
<path d="M353.476 58.3224C353.476 58.8896 353.206 59.3731 352.834 59.401C352.462 59.4289 352.155 59.0012 352.146 58.4712C352.137 57.9412 352.416 57.4204 352.788 57.3925C353.16 57.3646 353.457 57.7552 353.476 58.3224Z" fill="#263238"/>
<path d="M355.503 58.434C354.871 60.2276 354.008 61.9312 352.936 63.5017C353.95 64.3479 355.633 63.7807 355.633 63.7807L355.503 58.434Z" fill="#DE5753"/>
<path d="M356.302 66.1053C356.26 66.1054 356.218 66.089 356.187 66.0596C356.156 66.0302 356.137 65.99 356.135 65.9472C356.135 65.9019 356.152 65.8583 356.183 65.8255C356.215 65.7926 356.257 65.7729 356.302 65.7705C357.016 65.7187 357.71 65.5071 358.331 65.1514C358.952 64.7957 359.485 64.305 359.892 63.7156C359.913 63.6786 359.947 63.6514 359.988 63.6401C360.029 63.6288 360.073 63.6342 360.11 63.6551C360.147 63.6761 360.174 63.7109 360.186 63.7519C360.197 63.7928 360.192 63.8367 360.171 63.8736C359.739 64.5164 359.166 65.0517 358.496 65.4385C357.825 65.8254 357.075 66.0535 356.302 66.1053Z" fill="#263238"/>
<path d="M361.844 54.1845C361.793 54.1864 361.742 54.1764 361.696 54.1555C361.649 54.1345 361.607 54.1031 361.575 54.0637C361.32 53.7369 360.992 53.4748 360.617 53.2986C360.243 53.1225 359.831 53.0374 359.417 53.0501C359.375 53.0553 359.332 53.0518 359.291 53.04C359.251 53.0282 359.212 53.0082 359.179 52.9813C359.146 52.9543 359.119 52.921 359.099 52.8833C359.08 52.8456 359.068 52.8043 359.064 52.7619C359.061 52.6727 359.092 52.5857 359.151 52.5184C359.21 52.4512 359.292 52.4086 359.38 52.3992C359.903 52.3754 360.424 52.4769 360.899 52.6953C361.375 52.9136 361.791 53.2425 362.114 53.6545C362.141 53.6882 362.161 53.7271 362.172 53.7686C362.183 53.8102 362.186 53.8537 362.18 53.8964C362.174 53.9391 362.159 53.98 362.137 54.0168C362.114 54.0536 362.084 54.0853 362.049 54.1101C361.991 54.1564 361.919 54.1825 361.844 54.1845Z" fill="#263238"/>
<path d="M350.714 55.1423C350.666 55.1301 350.622 55.1079 350.584 55.0772C350.553 55.0469 350.528 55.0107 350.511 54.9708C350.495 54.9309 350.486 54.888 350.486 54.8447C350.486 54.8014 350.495 54.7586 350.511 54.7187C350.528 54.6787 350.553 54.6426 350.584 54.6123C350.906 54.1771 351.327 53.8246 351.812 53.5837C352.297 53.3429 352.832 53.2205 353.373 53.2268C353.416 53.2289 353.458 53.24 353.497 53.2594C353.535 53.2788 353.569 53.306 353.596 53.3393C353.623 53.3726 353.643 53.4113 353.654 53.4528C353.666 53.4942 353.668 53.5376 353.662 53.5801C353.648 53.668 353.603 53.7478 353.534 53.8043C353.465 53.8609 353.378 53.8903 353.29 53.887C352.865 53.8966 352.449 54.003 352.072 54.1979C351.695 54.3929 351.367 54.6714 351.114 55.0121C351.069 55.0727 351.006 55.1177 350.935 55.1411C350.863 55.1644 350.786 55.1648 350.714 55.1423Z" fill="#263238"/>
<path d="M387.034 91.946L377.354 89.3703C377.354 89.3703 367.87 112.719 364.522 114.244C359.966 116.318 348.417 123.543 343.517 126.955C343.238 128.108 343.452 131.195 344.075 132.032C352.444 130.516 368.465 124.352 371.812 121.209C379.437 114.067 387.034 91.946 387.034 91.946Z" fill="#E4897B"/>
<path d="M389.554 89.2773C392.111 97.5158 382.115 108.804 382.115 108.804L368.307 103.169C369.936 98.3978 371.82 93.717 373.951 89.1471C378.201 80.0066 386.969 80.9551 389.554 89.2773Z" fill="#FD9494"/>
<path opacity="0.6" d="M389.554 89.2773C392.111 97.5158 382.115 108.804 382.115 108.804L368.307 103.169C369.936 98.3978 371.82 93.717 373.951 89.1471C378.201 80.0066 386.969 80.9551 389.554 89.2773Z" fill="#FAFAFA"/>
<path d="M380.311 322.169C379.84 322.212 379.369 322.087 378.982 321.816C378.862 321.708 378.772 321.57 378.722 321.417C378.671 321.264 378.662 321.1 378.693 320.942C378.699 320.843 378.73 320.747 378.784 320.664C378.837 320.58 378.912 320.513 379 320.467C379.791 320.077 381.976 321.462 382.218 321.621C382.245 321.638 382.266 321.663 382.28 321.693C382.293 321.723 382.297 321.756 382.292 321.788C382.284 321.821 382.266 321.85 382.241 321.873C382.217 321.896 382.186 321.912 382.152 321.918C381.55 322.071 380.933 322.155 380.311 322.169ZM379.382 320.728C379.311 320.712 379.238 320.712 379.168 320.728C379.132 320.747 379.103 320.775 379.081 320.809C379.06 320.844 379.048 320.883 379.047 320.923C379.025 321.031 379.03 321.143 379.063 321.249C379.095 321.355 379.154 321.45 379.233 321.528C380.015 321.882 380.903 321.925 381.715 321.648C380.991 321.178 380.178 320.861 379.326 320.719L379.382 320.728Z" fill="#FD9494"/>
<path d="M382.087 321.918H382.013C381.306 321.518 379.995 319.984 380.153 319.203C380.187 319.081 380.26 318.973 380.361 318.896C380.461 318.819 380.584 318.777 380.711 318.775C380.835 318.756 380.961 318.765 381.08 318.802C381.199 318.839 381.309 318.903 381.399 318.989C382.18 319.649 382.227 321.667 382.227 321.779C382.227 321.825 382.208 321.87 382.175 321.904C382.142 321.937 382.097 321.955 382.05 321.955L382.087 321.918ZM380.841 319.082H380.767C380.553 319.082 380.525 319.212 380.516 319.249C380.395 319.714 381.223 320.867 381.911 321.416C381.909 320.63 381.666 319.864 381.213 319.221C381.111 319.131 380.978 319.081 380.841 319.082Z" fill="#FD9494"/>
<path d="M355.586 321.007C355.021 321.205 354.404 321.205 353.838 321.007C353.703 320.943 353.586 320.845 353.5 320.723C353.413 320.601 353.36 320.458 353.346 320.309C353.335 320.218 353.347 320.126 353.379 320.041C353.411 319.955 353.464 319.878 353.531 319.817C354.285 319.156 357.316 319.872 357.66 319.956C357.692 319.965 357.72 319.983 357.741 320.008C357.763 320.032 357.777 320.063 357.781 320.096C357.782 320.13 357.773 320.165 357.755 320.195C357.737 320.225 357.71 320.248 357.679 320.263C357.005 320.572 356.305 320.821 355.586 321.007ZM354.08 319.9C353.972 319.919 353.87 319.964 353.783 320.03C353.755 320.056 353.735 320.089 353.724 320.124C353.712 320.16 353.71 320.198 353.717 320.235C353.72 320.331 353.748 320.425 353.798 320.507C353.849 320.589 353.921 320.655 354.006 320.7C354.499 320.97 355.652 320.756 357.121 320.142C356.129 319.886 355.1 319.804 354.08 319.9Z" fill="#FD9494"/>
<path d="M357.679 320.244H357.614C356.684 320.077 354.824 319.008 354.768 318.208C354.768 318.022 354.852 317.762 355.289 317.604C355.594 317.499 355.928 317.519 356.219 317.659C357.232 318.161 357.762 319.947 357.781 320.021C357.794 320.047 357.801 320.076 357.801 320.105C357.801 320.134 357.794 320.163 357.781 320.189C357.769 320.205 357.754 320.219 357.736 320.229C357.719 320.238 357.699 320.244 357.679 320.244ZM355.484 317.901H355.382C355.094 318.003 355.103 318.124 355.103 318.161C355.103 318.636 356.451 319.519 357.39 319.817C357.17 319.072 356.713 318.419 356.089 317.957C355.902 317.862 355.685 317.842 355.484 317.901Z" fill="#FD9494"/>
<path d="M269.658 138.467C270.456 136.195 271.925 134.22 273.872 132.803C275.818 131.386 278.15 130.595 280.556 130.535H374.732C376.031 130.504 377.321 130.758 378.512 131.279C379.702 131.799 380.765 132.574 381.624 133.549C382.483 134.523 383.119 135.674 383.487 136.921C383.854 138.167 383.945 139.478 383.752 140.763L362.821 318.673C362.442 321.458 361.083 324.016 358.989 325.89C356.895 327.765 354.202 328.832 351.393 328.901H115.209C113.91 328.934 112.619 328.681 111.428 328.161C110.236 327.641 109.173 326.866 108.314 325.891C107.454 324.916 106.818 323.764 106.451 322.517C106.084 321.27 105.995 319.958 106.19 318.673L124.024 167.227C124.403 164.443 125.762 161.884 127.856 160.01C129.95 158.135 132.643 157.068 135.452 156.999H244.245C255.329 156.999 265.883 149.318 269.658 138.467Z" fill="#FD9494"/>
<path opacity="0.1" d="M269.658 138.467C270.456 136.195 271.925 134.22 273.872 132.803C275.818 131.386 278.15 130.595 280.556 130.535H374.732C376.031 130.504 377.321 130.758 378.512 131.279C379.702 131.799 380.765 132.574 381.624 133.549C382.483 134.523 383.119 135.674 383.487 136.921C383.854 138.167 383.945 139.478 383.752 140.763L362.821 318.673C362.442 321.458 361.083 324.016 358.989 325.89C356.895 327.765 354.202 328.832 351.393 328.901H115.209C113.91 328.934 112.619 328.681 111.428 328.161C110.236 327.641 109.173 326.866 108.314 325.891C107.454 324.916 106.818 323.764 106.451 322.517C106.084 321.27 105.995 319.958 106.19 318.673L124.024 167.227C124.403 164.443 125.762 161.884 127.856 160.01C129.95 158.135 132.643 157.068 135.452 156.999H244.245C255.329 156.999 265.883 149.318 269.658 138.467Z" fill="#FAFAFA"/>
<path d="M185.47 59.7012L58.2797 148.398L142.232 268.785L269.422 180.088L185.47 59.7012Z" fill="#FD9494"/>
<path opacity="0.8" d="M185.47 59.7012L58.2797 148.398L142.232 268.785L269.422 180.088L185.47 59.7012Z" fill="#FAFAFA"/>
<path d="M185.136 61.5728L57.9451 150.269L141.897 270.656L269.088 181.96L185.136 61.5728Z" fill="#FAFAFA"/>
<path d="M182.544 77.4283L73.7047 153.328L131.531 236.25L240.37 160.351L182.544 77.4283Z" fill="#FD9494"/>
<path opacity="0.8" d="M182.544 77.4283L73.7047 153.328L131.531 236.25L240.37 160.351L182.544 77.4283Z" fill="#FAFAFA"/>
<path d="M140.873 148.807C142.978 151.826 144.14 155.402 144.211 159.081C144.282 162.761 143.261 166.379 141.275 169.477C139.289 172.576 136.428 175.015 133.055 176.487C129.682 177.959 125.948 178.397 122.325 177.745C118.703 177.094 115.356 175.382 112.707 172.827C110.058 170.273 108.227 166.989 107.445 163.393C106.663 159.797 106.966 156.049 108.315 152.625C109.664 149.201 111.999 146.254 115.023 144.157C119.07 141.353 124.064 140.267 128.909 141.139C133.755 142.01 138.058 144.768 140.873 148.807Z" fill="#FD9494"/>
<path opacity="0.1" d="M140.873 148.807C142.978 151.826 144.14 155.402 144.211 159.081C144.282 162.761 143.261 166.379 141.275 169.477C139.289 172.576 136.428 175.015 133.055 176.487C129.682 177.959 125.948 178.397 122.325 177.745C118.703 177.094 115.356 175.382 112.707 172.827C110.058 170.273 108.227 166.989 107.445 163.393C106.663 159.797 106.966 156.049 108.315 152.625C109.664 149.201 111.999 146.254 115.023 144.157C119.07 141.353 124.064 140.267 128.909 141.139C133.755 142.01 138.058 144.768 140.873 148.807Z" fill="#FAFAFA"/>
<path d="M210.296 140.615C207.494 137.823 204.113 135.682 200.391 134.344C196.669 133.005 192.699 132.502 188.761 132.869C188.64 132.702 188.547 132.516 188.426 132.339C184.824 127.11 179.493 123.32 173.371 121.636C167.248 119.952 160.728 120.482 154.959 123.133C149.189 125.785 144.54 130.387 141.831 136.13C139.122 141.872 138.526 148.387 140.148 154.525C139.335 154.908 138.555 155.356 137.814 155.864C135.163 157.708 133.125 160.304 131.965 163.318C130.805 166.331 130.575 169.624 131.305 172.769C127.756 174.16 124.732 176.629 122.657 179.827C120.526 183.006 119.37 186.739 119.332 190.567C119.294 194.395 120.376 198.15 122.444 201.372C123.868 203.511 125.706 205.345 127.848 206.765C129.991 208.185 132.396 209.162 134.921 209.64C137.447 210.119 140.043 210.087 142.556 209.549C145.07 209.01 147.45 207.975 149.558 206.504L180.848 184.681L209.515 164.689C212.703 162.511 214.905 159.167 215.644 155.378C216.384 151.589 215.602 147.662 213.467 144.446L213.384 144.316C212.469 142.991 211.435 141.752 210.296 140.615Z" fill="#FD9494"/>
<path opacity="0.3" d="M210.296 140.615C207.494 137.823 204.113 135.682 200.391 134.344C196.669 133.005 192.699 132.502 188.761 132.869C188.64 132.702 188.547 132.516 188.426 132.339C184.824 127.11 179.493 123.32 173.371 121.636C167.248 119.952 160.728 120.482 154.959 123.133C149.189 125.785 144.54 130.387 141.831 136.13C139.122 141.872 138.526 148.387 140.148 154.525C139.335 154.908 138.555 155.356 137.814 155.864C135.163 157.708 133.125 160.304 131.965 163.318C130.805 166.331 130.575 169.624 131.305 172.769C127.756 174.16 124.732 176.629 122.657 179.827C120.526 183.006 119.37 186.739 119.332 190.567C119.294 194.395 120.376 198.15 122.444 201.372C123.868 203.511 125.706 205.345 127.848 206.765C129.991 208.185 132.396 209.162 134.921 209.64C137.447 210.119 140.043 210.087 142.556 209.549C145.07 209.01 147.45 207.975 149.558 206.504L180.848 184.681L209.515 164.689C212.703 162.511 214.905 159.167 215.644 155.378C216.384 151.589 215.602 147.662 213.467 144.446L213.384 144.316C212.469 142.991 211.435 141.752 210.296 140.615Z" fill="black"/>
<g style="mix-blend-mode:multiply">
<path d="M189.489 80.9131L59.1626 164.935L138.69 288.29L269.016 204.268L189.489 80.9131Z" fill="#FD9494"/>
</g>
<path opacity="0.8" d="M189.489 80.9131L59.1626 164.935L138.69 288.29L269.016 204.268L189.489 80.9131Z" fill="#FAFAFA"/>
<path d="M189.096 82.7843L58.7699 166.806L138.297 290.161L268.623 206.139L189.096 82.7843Z" fill="#FAFAFA"/>
<path d="M185.935 98.5376L74.4124 170.437L129.191 255.403L240.713 183.504L185.935 98.5376Z" fill="#FD9494"/>
<path opacity="0.8" d="M185.935 98.5376L74.4124 170.437L129.191 255.403L240.713 183.504L185.935 98.5376Z" fill="#FAFAFA"/>
<path d="M144.224 182.301C146.366 172.276 139.976 162.414 129.952 160.272C119.928 158.131 110.065 164.521 107.924 174.545C105.782 184.569 112.172 194.431 122.196 196.573C132.22 198.715 142.083 192.325 144.224 182.301Z" fill="#FD9494"/>
<path opacity="0.1" d="M144.224 182.301C146.366 172.276 139.976 162.414 129.952 160.272C119.928 158.131 110.065 164.521 107.924 174.545C105.782 184.569 112.172 194.431 122.196 196.573C132.22 198.715 142.083 192.325 144.224 182.301Z" fill="#FAFAFA"/>
<path d="M211.356 162.717C208.656 159.823 205.352 157.559 201.678 156.085C198.005 154.611 194.052 153.965 190.1 154.191C189.988 154.005 189.905 153.819 189.784 153.642C186.371 148.285 181.178 144.304 175.118 142.401C169.058 140.499 162.52 140.796 156.658 143.241C150.796 145.687 145.985 150.123 143.074 155.768C140.162 161.413 139.337 167.905 140.743 174.099C139.913 174.445 139.113 174.862 138.353 175.345C135.643 177.093 133.517 179.612 132.251 182.579C130.985 185.545 130.636 188.823 131.249 191.989C127.65 193.243 124.536 195.599 122.351 198.721C120.104 201.82 118.813 205.508 118.636 209.331C118.46 213.154 119.405 216.946 121.356 220.238C122.698 222.432 124.465 224.335 126.553 225.835C128.642 227.336 131.009 228.405 133.515 228.978C136.022 229.552 138.618 229.618 141.151 229.175C143.684 228.731 146.103 227.785 148.266 226.394L180.392 205.677L209.776 186.736C213.032 184.668 215.345 181.403 216.215 177.646C217.084 173.888 216.442 169.939 214.425 166.651L214.332 166.52C213.46 165.163 212.464 163.89 211.356 162.717Z" fill="#FD9494"/>
<path opacity="0.3" d="M211.356 162.717C208.656 159.823 205.352 157.559 201.678 156.085C198.005 154.611 194.052 153.965 190.1 154.191C189.988 154.005 189.905 153.819 189.784 153.642C186.371 148.285 181.178 144.304 175.118 142.401C169.058 140.499 162.52 140.796 156.658 143.241C150.796 145.687 145.985 150.123 143.074 155.768C140.162 161.413 139.337 167.905 140.743 174.099C139.913 174.445 139.113 174.862 138.353 175.345C135.643 177.093 133.517 179.612 132.251 182.579C130.985 185.545 130.636 188.823 131.249 191.989C127.65 193.243 124.536 195.599 122.351 198.721C120.104 201.82 118.813 205.508 118.636 209.331C118.46 213.154 119.405 216.946 121.356 220.238C122.698 222.432 124.465 224.335 126.553 225.835C128.642 227.336 131.009 228.405 133.515 228.978C136.022 229.552 138.618 229.618 141.151 229.175C143.684 228.731 146.103 227.785 148.266 226.394L180.392 205.677L209.776 186.736C213.032 184.668 215.345 181.403 216.215 177.646C217.084 173.888 216.442 169.939 214.425 166.651L214.332 166.52C213.46 165.163 212.464 163.89 211.356 162.717Z" fill="black"/>
<g style="mix-blend-mode:multiply">
<path d="M306.018 96.2975L151.88 113.206L167.884 259.099L322.022 242.191L306.018 96.2975Z" fill="#FD9494"/>
</g>
<path opacity="0.8" d="M306.018 96.2975L151.88 113.206L167.884 259.099L322.022 242.191L306.018 96.2975Z" fill="#FAFAFA"/>
<path d="M304.821 97.7853L150.682 114.693L166.686 260.587L320.824 243.679L304.821 97.7853Z" fill="#FAFAFA"/>
<path d="M294.954 110.462L163.055 124.93L174.078 225.421L305.978 210.953L294.954 110.462Z" fill="#FD9494"/>
<path opacity="0.8" d="M294.954 110.462L163.055 124.93L174.078 225.421L305.978 210.953L294.954 110.462Z" fill="#FAFAFA"/>
<path d="M305.588 207.276L305.988 210.949L237.476 218.472L253.832 199.075L270.579 179.194L305.588 207.276Z" fill="#FD9494"/>
<path opacity="0.3" d="M305.588 207.276L305.988 210.949L237.476 218.472L253.832 199.075L270.579 179.194L305.588 207.276Z" fill="black"/>
<path d="M276.326 214.204L174.097 225.418L173.204 217.337L213.328 171.839L253.832 199.075L276.326 214.204Z" fill="#FD9494"/>
<path opacity="0.3" d="M276.326 214.204L174.097 225.418L173.204 217.337L213.328 171.839L253.832 199.075L276.326 214.204Z" fill="black"/>
<path d="M263.761 147.795C264.123 139.129 257.39 131.81 248.724 131.448C240.058 131.087 232.739 137.819 232.378 146.485C232.016 155.151 238.748 162.47 247.414 162.832C256.081 163.193 263.399 156.461 263.761 147.795Z" fill="#FD9494"/>
<path opacity="0.1" d="M263.761 147.795C264.123 139.129 257.39 131.81 248.724 131.448C240.058 131.087 232.739 137.819 232.378 146.485C232.016 155.151 238.748 162.47 247.414 162.832C256.081 163.193 263.399 156.461 263.761 147.795Z" fill="#FAFAFA"/>
<g style="mix-blend-mode:multiply" opacity="0.7">
<path d="M229.535 175.605C230.167 171.607 233.989 168.761 238.759 168.761H332.963C338.607 168.761 343.61 172.713 344.121 177.586L356.749 320.077C357.279 324.949 353.122 328.901 347.45 328.901H111.267C105.613 328.901 100.611 324.949 100.108 320.077L89.9637 200.414C89.4337 195.541 93.5809 191.599 99.2623 191.599H208.055C219.121 191.599 228.057 184.969 229.535 175.605Z" fill="#FD9494"/>
</g>
<path d="M344.298 126.406L336.859 128.954L332.135 132.283L340.616 135.575C340.616 135.575 348.538 134.738 350.444 130.442L344.298 126.406Z" fill="#E4897B"/>
</svg>
