<svg width="465" height="488" viewBox="0 0 465 488" fill="none" xmlns="http://www.w3.org/2000/svg">
<path d="M235.603 487.861C362.256 487.861 464.928 428.582 464.928 355.459C464.928 282.335 362.256 223.057 235.603 223.057C108.951 223.057 6.27832 282.335 6.27832 355.459C6.27832 428.582 108.951 487.861 235.603 487.861Z" fill="#F5F5F5"/>
<path d="M303.285 296.926L110.849 408.251C105.24 411.497 95.4422 411.091 88.961 407.349L63.4422 392.672C56.9712 388.94 56.2612 383.28 61.8701 380.034L254.357 268.668C259.966 265.433 269.764 265.839 276.245 269.581L301.713 284.288C308.194 288.02 308.894 293.68 303.285 296.926Z" fill="#E0E0E0"/>
<path d="M371.839 434.957C403.589 434.957 429.328 420.094 429.328 401.76C429.328 383.426 403.589 368.563 371.839 368.563C340.089 368.563 314.351 383.426 314.351 401.76C314.351 420.094 340.089 434.957 371.839 434.957Z" fill="#E0E0E0"/>
<path d="M47.9646 356.544C55.1253 360.672 55.1253 367.366 47.9646 371.494C40.8039 375.622 29.221 375.622 22.0704 371.494C14.9199 367.366 14.9199 360.672 22.0704 356.544C29.221 352.416 40.8647 352.416 47.9646 356.544Z" fill="#E0E0E0"/>
<path d="M238.311 394.782L135.871 453.376C131.276 456.023 123.253 455.688 117.949 452.635L105.899 445.667C100.595 442.625 100.017 437.979 104.611 435.322L207.103 376.738C211.697 374.081 219.72 374.415 225.025 377.478L237.074 384.436C242.328 387.499 242.906 392.135 238.311 394.782Z" fill="#E0E0E0"/>
<path d="M232.469 419.043L191.361 442.878C186.767 445.525 178.744 445.191 173.439 442.128L161.39 435.17C156.085 432.127 155.507 427.482 160.102 424.824L201.21 400.989C205.804 398.342 213.827 398.677 219.132 401.74L231.191 408.698C236.496 411.791 237.064 416.416 232.469 419.043Z" fill="#E0E0E0"/>
<path d="M33.8663 330.964C33.8663 330.964 47.6704 317.475 39.8099 294.887C35.408 282.229 20.8127 272.989 12.4653 272.056C15.2134 275.328 17.4062 279.028 18.9566 283.01L29.4238 289.968L19.7985 286.925L21.827 295.161C21.827 295.161 30.7829 300.577 32.1015 301.754L22.4558 299.228C22.4558 299.228 23.2571 322.576 33.8663 330.964Z" fill="#9980FF"/>
<path opacity="0.4" d="M33.8663 330.964C33.8663 330.964 47.6704 317.475 39.8099 294.887C35.408 282.229 20.8127 272.989 12.4653 272.056C15.2134 275.328 17.4062 279.028 18.9566 283.01L29.4238 289.968L19.7985 286.925L21.827 295.161C21.827 295.161 30.7829 300.577 32.1015 301.754L22.4558 299.228C22.4558 299.228 23.2571 322.576 33.8663 330.964Z" fill="black"/>
<path d="M33.8662 330.964C33.8662 330.964 40.966 302.748 30.438 286.286C30.438 286.286 42.8323 300.81 33.8662 330.964Z" fill="white"/>
<path d="M18.064 334.778L34.9515 334.575H35.1239L52.0215 334.778C52.0215 334.778 52.2142 355.601 45.8041 364.07C44.0291 366.322 39.8808 367.894 35.0427 367.894C30.2047 367.894 26.0361 366.311 24.2713 364.05C17.8713 355.581 18.064 334.778 18.064 334.778Z" fill="#37474F"/>
<path d="M18.0538 334.778C18.0538 339.849 25.6608 343.906 35.0427 343.906C44.4247 343.906 52.0215 339.849 52.0215 334.778C52.0215 329.707 44.4145 325.65 35.0427 325.65C25.671 325.65 18.0538 329.788 18.0538 334.778Z" fill="#455A64"/>
<path d="M35.0428 332.364C29.2006 332.364 24.251 334.24 22.5065 336.837C22.0836 336.243 21.847 335.537 21.8269 334.808C21.8269 331.208 27.7401 328.297 35.0123 328.297C42.2846 328.297 48.1978 331.208 48.1978 334.808C48.177 335.535 47.9443 336.24 47.5283 336.837C45.8345 334.24 40.8646 332.364 35.0428 332.364Z" fill="#263238"/>
<path d="M35.0428 341.31C41.9664 341.31 47.5791 339.307 47.5791 336.837C47.5791 334.367 41.9664 332.364 35.0428 332.364C28.1192 332.364 22.5065 334.367 22.5065 336.837C22.5065 339.307 28.1192 341.31 35.0428 341.31Z" fill="#E0E0E0"/>
<path d="M34.8299 337.963C34.8299 337.963 41.382 337.709 47.001 329.017C49.3135 325.426 50.4292 323.55 50.4292 323.55L41.3009 322.871L51.5246 320.315L56.3424 312.931L47.8631 312.302C47.8631 312.302 54.182 310.081 58.6955 310.06C58.6955 310.06 66.5154 296.236 68.8381 294.268C62.9222 294.634 57.1395 296.181 51.8315 298.818C46.5235 301.456 41.7978 305.13 37.9335 309.624C25.0422 324.828 32.923 338.348 34.8299 337.963Z" fill="#9980FF"/>
<path d="M34.8298 337.963C34.8298 337.963 30.7728 313.306 56.8596 298.478C56.8596 298.478 29.7078 311.531 34.8298 337.963Z" fill="white"/>
<path d="M34.8298 337.963C34.8298 337.963 28.9065 338.348 23.0238 331.035C20.5997 327.993 19.413 326.42 19.413 326.42L27.5271 324.95L18.064 323.611L12.9927 317.404L20.5895 316.034C20.5895 316.034 14.6764 314.635 10.6092 315.02C10.6092 315.02 2.25166 303.285 0 301.723C5.37079 301.496 10.7326 302.348 15.7689 304.227C20.8051 306.107 25.4137 308.977 29.3224 312.667C42.4368 325.193 36.5946 338.135 34.8298 337.963Z" fill="#9980FF"/>
<path opacity="0.2" d="M34.8298 337.963C34.8298 337.963 28.9065 338.348 23.0238 331.035C20.5997 327.993 19.413 326.42 19.413 326.42L27.5271 324.95L18.064 323.611L12.9927 317.404L20.5895 316.034C20.5895 316.034 14.6764 314.635 10.6092 315.02C10.6092 315.02 2.25166 303.285 0 301.723C5.37079 301.496 10.7326 302.348 15.7689 304.227C20.8051 306.107 25.4137 308.977 29.3224 312.667C42.4368 325.193 36.5946 338.135 34.8298 337.963Z" fill="black"/>
<path d="M34.8298 337.963C34.8298 337.963 36.2092 315.335 11.238 304.431C11.238 304.431 36.9293 313.61 34.8298 337.963Z" fill="white"/>
<path d="M227.489 355.337C227.103 355.337 226.727 355.209 226.421 354.973C226.115 354.737 225.895 354.407 225.795 354.034C225.696 353.66 225.723 353.265 225.871 352.908C226.02 352.551 226.282 352.254 226.617 352.061L299.319 310.395C300.439 309.757 301.373 308.838 302.029 307.728C302.685 306.618 303.039 305.356 303.058 304.068C303.076 302.779 302.758 301.507 302.134 300.379C301.51 299.251 300.603 298.305 299.502 297.636L293.741 294.177C290.668 292.335 287.158 291.348 283.575 291.319C279.992 291.291 276.466 292.222 273.364 294.015L267.045 297.626C264.729 298.825 262.158 299.451 259.55 299.451C256.941 299.451 254.371 298.825 252.055 297.626C249.762 296.307 248.444 294.36 248.444 292.29C248.444 290.221 249.762 288.233 252.055 286.945L262.633 280.86C264.438 279.813 265.937 278.312 266.982 276.506C268.027 274.7 268.58 272.651 268.587 270.565V234.67C268.587 234.205 268.772 233.759 269.101 233.429C269.43 233.1 269.876 232.916 270.342 232.916C270.572 232.913 270.801 232.956 271.015 233.041C271.229 233.127 271.424 233.254 271.588 233.415C271.753 233.576 271.885 233.768 271.975 233.98C272.066 234.192 272.114 234.419 272.117 234.65V270.545C272.108 273.246 271.392 275.898 270.04 278.236C268.687 280.575 266.746 282.518 264.408 283.872L253.829 289.958C252.653 290.637 251.973 291.479 251.973 292.26C251.973 293.041 252.653 293.883 253.829 294.562C255.614 295.448 257.578 295.909 259.57 295.909C261.562 295.909 263.527 295.448 265.311 294.562L271.579 290.942C275.225 288.838 279.366 287.748 283.575 287.783C287.784 287.819 291.906 288.979 295.516 291.144L301.277 294.593C302.905 295.572 304.249 296.96 305.176 298.618C306.104 300.276 306.584 302.147 306.567 304.046C306.551 305.946 306.039 307.809 305.083 309.451C304.127 311.092 302.759 312.456 301.114 313.407L228.402 355.144C228.121 355.29 227.805 355.356 227.489 355.337Z" fill="#9980FF"/>
<path opacity="0.2" d="M227.489 355.337C227.103 355.337 226.727 355.209 226.421 354.973C226.115 354.737 225.895 354.407 225.795 354.034C225.696 353.66 225.723 353.265 225.871 352.908C226.02 352.551 226.282 352.254 226.617 352.061L299.319 310.395C300.439 309.757 301.373 308.838 302.029 307.728C302.685 306.618 303.039 305.356 303.058 304.068C303.076 302.779 302.758 301.507 302.134 300.379C301.51 299.251 300.603 298.305 299.502 297.636L293.741 294.177C290.668 292.335 287.158 291.348 283.575 291.319C279.992 291.291 276.466 292.222 273.364 294.015L267.045 297.626C264.729 298.825 262.158 299.451 259.55 299.451C256.941 299.451 254.371 298.825 252.055 297.626C249.762 296.307 248.444 294.36 248.444 292.29C248.444 290.221 249.762 288.233 252.055 286.945L262.633 280.86C264.438 279.813 265.937 278.312 266.982 276.506C268.027 274.7 268.58 272.651 268.587 270.565V234.67C268.587 234.205 268.772 233.759 269.101 233.429C269.43 233.1 269.876 232.916 270.342 232.916C270.572 232.913 270.801 232.956 271.015 233.041C271.229 233.127 271.424 233.254 271.588 233.415C271.753 233.576 271.885 233.768 271.975 233.98C272.066 234.192 272.114 234.419 272.117 234.65V270.545C272.108 273.246 271.392 275.898 270.04 278.236C268.687 280.575 266.746 282.518 264.408 283.872L253.829 289.958C252.653 290.637 251.973 291.479 251.973 292.26C251.973 293.041 252.653 293.883 253.829 294.562C255.614 295.448 257.578 295.909 259.57 295.909C261.562 295.909 263.527 295.448 265.311 294.562L271.579 290.942C275.225 288.838 279.366 287.748 283.575 287.783C287.784 287.819 291.906 288.979 295.516 291.144L301.277 294.593C302.905 295.572 304.249 296.96 305.176 298.618C306.104 300.276 306.584 302.147 306.567 304.046C306.551 305.946 306.039 307.809 305.083 309.451C304.127 311.092 302.759 312.456 301.114 313.407L228.402 355.144C228.121 355.29 227.805 355.356 227.489 355.337Z" fill="black"/>
<path d="M270.291 248.829C269.139 248.829 268.034 248.372 267.218 247.559C266.402 246.745 265.943 245.641 265.94 244.488V232.317H274.642V244.488C274.639 245.641 274.18 246.745 273.364 247.559C272.548 248.372 271.443 248.829 270.291 248.829Z" fill="#9980FF"/>
<path opacity="0.4" d="M270.291 248.829C269.139 248.829 268.034 248.372 267.218 247.559C266.402 246.745 265.943 245.641 265.94 244.488V232.317H274.642V244.488C274.639 245.641 274.18 246.745 273.364 247.559C272.548 248.372 271.443 248.829 270.291 248.829Z" fill="black"/>
<path d="M245.797 309.432L215.561 326.674C213.211 328.017 210.55 328.724 207.843 328.724C205.135 328.724 202.475 328.017 200.124 326.674L180.752 315.517L178.541 314.239C176.244 312.911 174.337 311.002 173.01 308.703C171.684 306.405 170.985 303.799 170.984 301.145V245.361L216.332 219.406V276.387C216.333 278.679 216.937 280.931 218.084 282.916C219.23 284.901 220.879 286.55 222.864 287.696L245.807 300.942C246.552 301.373 247.171 301.992 247.6 302.738C248.03 303.483 248.256 304.329 248.255 305.19C248.254 306.051 248.026 306.896 247.594 307.64C247.163 308.385 246.543 309.003 245.797 309.432Z" fill="#263238"/>
<path d="M209.1 328.621C211.377 328.429 213.583 327.737 215.561 326.593L245.797 309.35C246.542 308.921 247.162 308.302 247.592 307.557C248.023 306.812 248.25 305.966 248.25 305.106C248.25 304.245 248.023 303.4 247.592 302.654C247.162 301.909 246.542 301.291 245.797 300.861L230.126 291.814H209.1V328.621Z" fill="#37474F"/>
<path d="M245.259 297.2L246.101 297.869C246.776 298.409 247.32 299.095 247.694 299.874C248.068 300.654 248.262 301.508 248.261 302.372V305.192H245.218L245.259 297.2Z" fill="#37474F"/>
<path d="M219.842 223.716V275.018C219.842 277.236 220.426 279.415 221.535 281.336C222.644 283.257 224.239 284.852 226.16 285.962L245.259 297.23C245.982 297.645 246.582 298.243 247 298.964C247.417 299.686 247.637 300.504 247.637 301.338C247.637 302.171 247.417 302.99 247 303.711C246.582 304.432 245.982 305.031 245.259 305.446L243.088 306.683L215.957 322.079C213.684 323.38 211.111 324.064 208.492 324.064C205.873 324.064 203.3 323.38 201.027 322.079L182.233 310.983C180.312 309.874 178.716 308.279 177.607 306.358C176.498 304.437 175.914 302.258 175.914 300.04V248.718L219.842 223.716Z" fill="#455A64"/>
<path d="M219.842 275.018V223.716L175.914 248.718V299.989C175.914 302.207 176.498 304.386 177.607 306.307C178.716 308.228 180.312 309.824 182.233 310.933L225.511 285.525C223.773 284.378 222.345 282.817 221.356 280.984C220.367 279.151 219.847 277.101 219.842 275.018Z" fill="#263238"/>
<path d="M80.8367 338.166L75.8466 341.056V350.185C72.6334 350.189 69.4789 349.324 66.7182 347.679L66.3328 347.446C65.1885 346.766 64.1941 345.86 63.4096 344.785C62.6252 343.709 62.0669 342.486 61.7686 341.188C61.5965 340.629 61.5077 340.049 61.5049 339.464V327.019L80.8367 338.166Z" fill="#263238"/>
<path d="M297.808 2.74881L297.412 2.50538C294.65 0.86593 291.497 0.000565063 288.284 0.000153287C287.259 -0.00732252 286.251 0.258774 285.363 0.770994L70.2783 124.501C67.6319 126.028 65.4343 128.224 63.9066 130.87C62.3789 133.516 61.5751 136.518 61.5759 139.573V327.019L80.8469 338.176L285.231 220.663C287.877 219.136 290.074 216.939 291.601 214.293C293.129 211.647 293.933 208.646 293.934 205.591V11.228H302.626C302.625 9.51866 302.181 7.83873 301.336 6.35249C300.492 4.86625 299.276 3.62456 297.808 2.74881Z" fill="#37474F"/>
<path d="M63.3711 131.763C62.1601 134.189 61.5282 136.862 61.5251 139.573V327.019L80.7961 338.176L88.0278 333.997V147.058L63.3711 131.763Z" fill="#263238"/>
<path d="M70.2174 332.029V344.474C70.2187 345.474 70.483 346.456 70.9838 347.322C71.4846 348.188 72.2043 348.906 73.0706 349.406C73.9369 349.905 74.9194 350.168 75.9194 350.167C76.9193 350.167 77.9016 349.904 78.7676 349.404L293.923 225.664C296.569 224.136 298.766 221.939 300.294 219.293C301.821 216.648 302.626 213.647 302.626 210.592V197.853L70.2174 332.029Z" fill="#37474F"/>
<path d="M302.626 10.731C302.626 9.73019 302.363 8.74686 301.863 7.87991C301.363 7.01296 300.644 6.29296 299.777 5.79231C298.91 5.29167 297.927 5.02802 296.926 5.02789C295.925 5.02776 294.942 5.29115 294.075 5.79157L78.9198 129.532C76.2734 131.058 74.0758 133.255 72.5481 135.901C71.0204 138.547 70.2166 141.548 70.2174 144.604V332.04L302.626 197.852" fill="#455A64"/>
<path d="M290.16 19.3625H290.11C289.127 19.3541 288.157 19.5801 287.28 20.0217L85.0662 136.266C82.7286 137.616 80.7874 139.557 79.4379 141.895C78.0883 144.233 77.3779 146.884 77.3781 149.584V309.29C77.3724 309.988 77.5141 310.679 77.7939 311.318C78.0808 311.961 78.4982 312.537 79.0198 313.01C79.5414 313.482 80.1556 313.841 80.8234 314.063C81.4913 314.286 82.198 314.366 82.8988 314.301C83.5996 314.235 84.279 314.024 84.8938 313.681L287.148 197.396C289.484 196.047 291.424 194.108 292.774 191.772C294.123 189.436 294.835 186.787 294.836 184.089V24.3831C294.827 23.1126 294.342 21.8918 293.476 20.9621C292.61 20.0324 291.427 19.4615 290.16 19.3625Z" fill="#9980FF"/>
<path opacity="0.5" d="M290.16 19.3625H290.11C289.127 19.3541 288.157 19.5801 287.28 20.0217L85.0662 136.266C82.7286 137.616 80.7874 139.557 79.4379 141.895C78.0883 144.233 77.3779 146.884 77.3781 149.584V309.29C77.3724 309.988 77.5141 310.679 77.7939 311.318C78.0808 311.961 78.4982 312.537 79.0198 313.01C79.5414 313.482 80.1556 313.841 80.8234 314.063C81.4913 314.286 82.198 314.366 82.8988 314.301C83.5996 314.235 84.279 314.024 84.8938 313.681L287.148 197.396C289.484 196.047 291.424 194.108 292.774 191.772C294.123 189.436 294.835 186.787 294.836 184.089V24.3831C294.827 23.1126 294.342 21.8918 293.476 20.9621C292.61 20.0324 291.427 19.4615 290.16 19.3625Z" fill="white"/>
<path d="M98.9617 140.445L292.402 28.7546C294.623 27.4664 296.611 27.5679 298.031 28.7546L304.725 33.3796L300.161 39.029V195.023C300.161 200.743 296.682 207.376 292.402 209.851L100.869 320.406L100.514 326.492L93.4137 321.654C92.0038 320.589 91.1417 318.509 91.1417 315.649V155.274C91.2026 149.553 94.6714 142.92 98.9617 140.445Z" fill="#9980FF"/>
<path opacity="0.2" d="M98.9617 140.445L292.402 28.7546C294.623 27.4664 296.611 27.5679 298.031 28.7546L304.725 33.3796L300.161 39.029V195.023C300.161 200.743 296.682 207.376 292.402 209.851L100.869 320.406L100.514 326.492L93.4137 321.654C92.0038 320.589 91.1417 318.509 91.1417 315.649V155.274C91.2026 149.553 94.6714 142.92 98.9617 140.445Z" fill="white"/>
<path d="M97.7952 320.213V159.807C97.8749 156.565 98.7678 153.395 100.392 150.588L93.4846 146.622C92.0528 149.286 91.2709 152.25 91.2025 155.274V315.679C91.2025 318.54 92.0646 320.619 93.4745 321.684L99.9759 326.137C98.6776 325.061 97.7952 323.013 97.7952 320.213Z" fill="#9980FF"/>
<path opacity="0.3" d="M100.422 326.451L100.534 326.522C100.494 326.502 100.457 326.479 100.422 326.451Z" fill="#9980FF"/>
<path d="M105.554 326.086L299.005 214.385C303.295 211.91 306.774 205.257 306.774 199.567V39.1508C306.774 33.4405 303.295 30.8135 299.005 33.2883L105.554 144.979C101.264 147.454 97.7953 154.107 97.7953 159.808V320.213C97.7953 325.934 101.264 328.561 105.554 326.086Z" fill="#9980FF"/>
<path d="M105.554 326.086L299.005 214.385C303.295 211.91 306.774 205.257 306.774 199.567V39.1508C306.774 33.4405 303.295 30.8135 299.005 33.2883L105.554 144.979C101.264 147.454 97.7953 154.107 97.7953 159.808V320.213C97.7953 325.934 101.264 328.561 105.554 326.086Z" fill="#9980FF"/>
<path opacity="0.7" d="M105.554 326.086L299.005 214.385C303.295 211.91 306.774 205.257 306.774 199.567V39.1508C306.774 33.4405 303.295 30.8135 299.005 33.2883L105.554 144.979C101.264 147.454 97.7953 154.107 97.7953 159.808V320.213C97.7953 325.934 101.264 328.561 105.554 326.086Z" fill="white"/>
<path d="M105.554 144.979L299.005 33.2883C303.295 30.8135 306.774 33.4405 306.774 39.1508V46.991L97.8358 167.688V159.848C97.7952 154.087 101.264 147.454 105.554 144.979Z" fill="#9980FF"/>
<path opacity="0.5" d="M105.554 144.979L299.005 33.2883C303.295 30.8135 306.774 33.4405 306.774 39.1508V46.991L97.8358 167.688V159.848C97.7952 154.087 101.264 147.454 105.554 144.979Z" fill="white"/>
<path d="M302.088 33.0551C304.512 33.0551 306.074 35.4487 306.074 39.1406V199.567C306.074 205.044 302.748 211.423 298.66 213.766L105.199 325.477C104.38 325.993 103.439 326.284 102.471 326.319C100.047 326.319 98.485 323.925 98.485 320.234V159.808C98.485 154.32 101.812 147.941 105.899 145.608L299.36 33.8868C300.18 33.3734 301.121 33.0865 302.088 33.0551ZM302.088 32.3552C301.01 32.3947 299.961 32.7164 299.045 33.2883L105.554 144.979C101.264 147.454 97.7852 154.107 97.7852 159.808V320.213C97.7852 324.473 99.7123 327.019 102.471 327.019C103.549 326.975 104.597 326.654 105.514 326.086L299.005 214.385C303.295 211.91 306.774 205.257 306.774 199.567V39.1508C306.774 34.901 304.847 32.3552 302.088 32.3552Z" fill="#9980FF"/>
<path d="M114.257 149.858C114.21 150.872 113.922 151.861 113.418 152.743C112.913 153.625 112.207 154.374 111.356 154.929C109.753 155.852 108.445 155.101 108.445 153.255C108.494 152.24 108.784 151.251 109.29 150.369C109.796 149.487 110.504 148.739 111.356 148.184C112.959 147.22 114.257 148.012 114.257 149.858Z" fill="white"/>
<path d="M124.501 143.944C124.454 144.959 124.166 145.948 123.662 146.83C123.157 147.712 122.451 148.461 121.6 149.016C119.997 149.939 118.689 149.188 118.689 147.342C118.738 146.327 119.028 145.338 119.534 144.456C120.04 143.574 120.748 142.825 121.6 142.271C123.203 141.348 124.501 142.149 124.501 143.944Z" fill="white"/>
<path d="M134.745 138.031C134.698 139.046 134.41 140.035 133.906 140.917C133.401 141.798 132.695 142.548 131.844 143.103C130.231 144.026 128.933 143.275 128.933 141.429C128.98 140.413 129.268 139.423 129.774 138.541C130.281 137.659 130.99 136.91 131.844 136.358C133.447 135.435 134.745 136.185 134.745 138.031Z" fill="white"/>
<path d="M138.051 271.579C137.915 271.583 137.78 271.614 137.656 271.671L109.5 287.899C109.173 288.085 108.901 288.356 108.712 288.682C108.523 289.008 108.424 289.378 108.425 289.755V311.998C108.425 312.092 108.445 312.186 108.486 312.272C108.525 312.365 108.584 312.449 108.658 312.517C108.733 312.586 108.821 312.637 108.918 312.668C109.014 312.699 109.116 312.708 109.217 312.696C109.317 312.684 109.414 312.649 109.5 312.596L137.656 296.368C137.981 296.181 138.252 295.913 138.44 295.589C138.629 295.265 138.729 294.897 138.731 294.522V272.279C138.731 272.097 138.66 271.922 138.533 271.791C138.406 271.661 138.234 271.585 138.051 271.579Z" fill="white"/>
<path d="M135.181 293.802L113.942 306.064L120.211 289.735L124.562 294.897L129.004 288.568L135.181 293.802Z" fill="#9980FF"/>
<path opacity="0.4" d="M135.181 293.802L113.942 306.064L120.211 289.735L124.562 294.897L129.004 288.568L135.181 293.802Z" fill="white"/>
<path d="M127.807 283.619C127.772 284.291 127.578 284.946 127.242 285.53C126.905 286.113 126.435 286.609 125.87 286.976C124.805 287.595 123.933 287.087 123.933 285.85C123.97 285.179 124.165 284.527 124.502 283.945C124.838 283.364 125.307 282.87 125.87 282.503C126.945 281.884 127.807 282.381 127.807 283.619Z" fill="#9980FF"/>
<path d="M175.833 249.712C175.695 249.709 175.559 249.74 175.437 249.803L147.281 266.031C146.954 266.218 146.682 266.488 146.493 266.814C146.304 267.14 146.205 267.511 146.206 267.887V290.12C146.205 290.218 146.226 290.315 146.267 290.404C146.306 290.498 146.365 290.581 146.44 290.65C146.514 290.718 146.603 290.77 146.699 290.8C146.796 290.831 146.898 290.841 146.998 290.828C147.099 290.816 147.195 290.782 147.281 290.729L175.437 274.5C175.762 274.314 176.033 274.045 176.222 273.721C176.41 273.397 176.511 273.029 176.512 272.655V250.412C176.512 250.23 176.441 250.055 176.315 249.924C176.188 249.793 176.015 249.717 175.833 249.712Z" fill="white"/>
<path d="M172.972 271.934L151.734 284.197L158.002 267.867L162.353 273.03L166.796 266.701L172.972 271.934Z" fill="#9980FF"/>
<path opacity="0.4" d="M172.972 271.934L151.734 284.197L158.002 267.867L162.353 273.03L166.796 266.701L172.972 271.934Z" fill="white"/>
<path d="M165.029 263.649C165.785 262.339 165.785 260.923 165.028 260.486C164.271 260.049 163.044 260.757 162.288 262.066C161.532 263.376 161.532 264.792 162.289 265.229C163.046 265.666 164.273 264.958 165.029 263.649Z" fill="#9980FF"/>
<path d="M288.751 184.363C288.613 184.36 288.477 184.391 288.355 184.454L260.199 200.682C259.874 200.871 259.605 201.142 259.418 201.468C259.231 201.793 259.133 202.163 259.134 202.538V224.771C259.134 224.868 259.152 224.964 259.185 225.055C259.224 225.148 259.283 225.232 259.357 225.301C259.432 225.369 259.521 225.42 259.617 225.451C259.714 225.482 259.816 225.492 259.916 225.479C260.016 225.467 260.113 225.433 260.199 225.38L288.365 209.151C288.69 208.963 288.959 208.692 289.146 208.366C289.333 208.04 289.431 207.671 289.43 207.295V185.063C289.432 184.972 289.415 184.882 289.382 184.798C289.348 184.714 289.298 184.637 289.235 184.572C289.172 184.507 289.097 184.455 289.014 184.419C288.931 184.383 288.841 184.364 288.751 184.363Z" fill="white"/>
<path d="M285.88 206.585L264.642 218.848L270.92 202.518L275.261 207.681L279.703 201.352L285.88 206.585Z" fill="#9980FF"/>
<path opacity="0.4" d="M285.88 206.585L264.642 218.848L270.92 202.518L275.261 207.681L279.703 201.352L285.88 206.585Z" fill="white"/>
<path d="M278.517 196.402C278.479 197.073 278.284 197.725 277.948 198.307C277.611 198.888 277.142 199.382 276.579 199.749C275.504 200.368 274.642 199.871 274.642 198.634C274.677 197.961 274.871 197.306 275.208 196.722C275.545 196.139 276.015 195.643 276.579 195.276C277.644 194.658 278.517 195.165 278.517 196.402Z" fill="#9980FF"/>
<path d="M213.624 227.844C213.487 227.841 213.351 227.873 213.229 227.936L185.073 244.164C184.745 244.35 184.473 244.621 184.284 244.947C184.095 245.273 183.996 245.643 183.998 246.02V268.253C183.996 268.351 184.017 268.448 184.058 268.537C184.097 268.63 184.156 268.714 184.231 268.782C184.306 268.851 184.394 268.902 184.491 268.933C184.587 268.964 184.689 268.973 184.789 268.961C184.89 268.949 184.987 268.914 185.073 268.861L213.229 252.633C213.555 252.445 213.827 252.175 214.015 251.849C214.204 251.523 214.304 251.153 214.304 250.777V228.544C214.305 228.454 214.289 228.364 214.255 228.279C214.222 228.195 214.172 228.118 214.109 228.053C214.046 227.988 213.97 227.937 213.887 227.901C213.804 227.865 213.715 227.846 213.624 227.844Z" fill="white"/>
<path d="M210.764 250.067L189.525 262.329L195.793 246L200.145 251.162L204.587 244.833L210.764 250.067Z" fill="#9980FF"/>
<path opacity="0.4" d="M210.764 250.067L189.525 262.329L195.793 246L200.145 251.162L204.587 244.833L210.764 250.067Z" fill="white"/>
<path d="M203.39 239.884C203.355 240.556 203.161 241.211 202.824 241.795C202.488 242.378 202.018 242.874 201.453 243.241C200.388 243.849 199.516 243.352 199.516 242.115C199.553 241.443 199.748 240.789 200.085 240.206C200.421 239.623 200.89 239.127 201.453 238.758C202.528 238.139 203.39 238.646 203.39 239.884Z" fill="#9980FF"/>
<path d="M251.416 206.048C251.279 206.049 251.144 206.08 251.02 206.139L222.864 222.367C222.537 222.555 222.266 222.825 222.077 223.151C221.888 223.477 221.789 223.847 221.789 224.223V246.466C221.788 246.561 221.809 246.655 221.85 246.74C221.889 246.833 221.948 246.917 222.023 246.985C222.097 247.054 222.185 247.106 222.281 247.137C222.377 247.169 222.479 247.18 222.579 247.169C222.68 247.158 222.777 247.126 222.864 247.075L251.02 230.847C251.345 230.658 251.616 230.387 251.804 230.061C251.993 229.736 252.093 229.367 252.095 228.99V206.707C252.083 206.533 252.007 206.369 251.881 206.248C251.756 206.126 251.59 206.055 251.416 206.048Z" fill="white"/>
<path d="M248.555 228.23L227.317 240.492L233.585 224.173L237.936 229.325L242.379 223.006L248.555 228.23Z" fill="#9980FF"/>
<path opacity="0.4" d="M248.555 228.23L227.317 240.492L233.585 224.173L237.936 229.325L242.379 223.006L248.555 228.23Z" fill="white"/>
<path d="M241.182 218.047C241.146 218.719 240.953 219.374 240.616 219.958C240.279 220.541 239.809 221.037 239.244 221.404C238.179 222.022 237.307 221.515 237.307 220.288C237.345 219.616 237.54 218.962 237.876 218.379C238.213 217.796 238.681 217.3 239.244 216.931C240.319 216.312 241.182 216.809 241.182 218.047Z" fill="#9980FF"/>
<path d="M257.917 92.3387C257.389 92.3354 256.868 92.457 256.396 92.6937L148.275 154.827C147.028 155.547 145.993 156.582 145.272 157.828C144.551 159.074 144.17 160.488 144.167 161.927V247.288C144.167 247.658 144.243 248.024 144.391 248.363C144.544 248.71 144.768 249.021 145.049 249.276C145.33 249.531 145.662 249.724 146.022 249.843C146.383 249.962 146.764 250.003 147.142 249.965C147.52 249.926 147.885 249.809 148.214 249.621L256.294 187.477C257.542 186.758 258.579 185.724 259.3 184.478C260.021 183.231 260.401 181.817 260.402 180.377V95.0265C260.404 94.3474 260.149 93.6928 259.688 93.1942C259.227 92.6956 258.594 92.3899 257.917 92.3387Z" fill="white"/>
<path d="M246.892 177.638L165.365 224.71L189.454 162.039L206.129 181.848L223.178 157.566L246.892 177.638Z" fill="#9980FF"/>
<path opacity="0.4" d="M246.892 177.638L165.365 224.71L189.454 162.039L206.129 181.848L223.178 157.566L246.892 177.638Z" fill="white"/>
<path d="M218.614 138.549C218.472 141.129 217.724 143.64 216.43 145.878C215.137 148.116 213.335 150.018 211.17 151.43C207.113 153.793 203.735 151.876 203.735 147.129C203.876 144.549 204.622 142.038 205.914 139.801C207.205 137.563 209.006 135.661 211.17 134.248C215.318 131.875 218.614 133.802 218.614 138.549Z" fill="#9980FF"/>
<path d="M286.815 133.131C290.263 127.16 290.262 120.704 286.813 118.713C283.363 116.722 277.772 119.948 274.325 125.92C270.877 131.892 270.878 138.347 274.327 140.339C277.776 142.33 283.367 139.103 286.815 133.131Z" fill="white"/>
<path d="M276.995 132.007C276.814 132.01 276.637 131.952 276.493 131.843C276.349 131.734 276.245 131.579 276.198 131.404C276.152 131.229 276.165 131.044 276.236 130.877C276.307 130.711 276.431 130.573 276.59 130.485L283.689 126.347C283.782 126.293 283.885 126.258 283.992 126.244C284.099 126.23 284.207 126.237 284.311 126.266C284.415 126.294 284.512 126.343 284.597 126.409C284.682 126.475 284.752 126.557 284.805 126.651C284.913 126.839 284.942 127.061 284.887 127.269C284.832 127.478 284.697 127.657 284.511 127.767L277.35 131.895C277.241 131.957 277.12 131.995 276.995 132.007Z" fill="#9980FF"/>
<path d="M279.785 135.384C279.643 135.384 279.504 135.349 279.379 135.283C279.193 135.173 279.058 134.994 279.003 134.785C278.948 134.576 278.977 134.354 279.085 134.167L283.04 127.31L279.379 125.201C279.286 125.147 279.205 125.075 279.14 124.99C279.075 124.905 279.028 124.808 279.001 124.704C278.973 124.6 278.967 124.492 278.981 124.386C278.996 124.28 279.031 124.178 279.085 124.085C279.139 123.993 279.21 123.912 279.296 123.847C279.381 123.782 279.478 123.734 279.582 123.707C279.685 123.68 279.793 123.673 279.899 123.687C280.006 123.702 280.108 123.737 280.2 123.791L284.562 126.306C284.746 126.418 284.88 126.596 284.937 126.803C284.967 126.906 284.976 127.015 284.962 127.121C284.948 127.228 284.912 127.33 284.856 127.422L280.495 134.978C280.423 135.103 280.319 135.206 280.194 135.277C280.07 135.348 279.928 135.385 279.785 135.384Z" fill="#9980FF"/>
<path d="M132.818 215.024C132.818 220.653 128.862 227.499 123.984 230.319C119.105 233.139 115.159 230.847 115.159 225.248C115.159 219.649 119.115 212.772 123.984 209.963C128.852 207.153 132.818 209.395 132.818 215.024Z" fill="white"/>
<path d="M120.413 223.463C120.269 223.462 120.127 223.423 120.003 223.35C119.878 223.277 119.775 223.172 119.703 223.047C119.596 222.861 119.567 222.641 119.622 222.433C119.678 222.226 119.812 222.049 119.998 221.941L127.158 217.803C127.345 217.694 127.568 217.664 127.777 217.719C127.986 217.774 128.165 217.91 128.274 218.097C128.383 218.284 128.413 218.507 128.358 218.716C128.303 218.925 128.167 219.104 127.98 219.213L120.819 223.351C120.695 223.421 120.556 223.459 120.413 223.463Z" fill="#9980FF"/>
<path d="M124.765 225.978C124.622 225.974 124.483 225.936 124.359 225.866L119.997 223.351C119.813 223.239 119.679 223.062 119.622 222.854C119.592 222.751 119.583 222.643 119.597 222.536C119.611 222.43 119.647 222.327 119.703 222.235L124.065 214.679C124.172 214.492 124.35 214.356 124.558 214.299C124.766 214.243 124.988 214.272 125.175 214.38C125.362 214.488 125.499 214.665 125.555 214.873C125.611 215.082 125.582 215.304 125.474 215.491L121.519 222.347L125.18 224.457C125.366 224.567 125.501 224.745 125.556 224.954C125.611 225.163 125.582 225.385 125.474 225.572C125.401 225.695 125.297 225.797 125.173 225.868C125.048 225.94 124.908 225.977 124.765 225.978Z" fill="#9980FF"/>
<path d="M235.319 320.213V387.956C235.319 389.447 234.427 390.857 232.581 391.922L136.378 447.442C134.729 448.332 132.903 448.845 131.033 448.944C131.003 448.954 130.971 448.954 130.941 448.944V378.625L235.319 320.213Z" fill="#9980FF"/>
<path opacity="0.2" d="M150.344 394.163V423.881C150.336 424.941 150.051 425.981 149.517 426.897C148.984 427.814 148.22 428.574 147.302 429.105L136.347 435.423C134.699 436.313 132.873 436.826 131.002 436.925H130.911V399.772C132.813 399.682 134.671 399.165 136.347 398.261L146.825 392.175C147.178 391.967 147.579 391.855 147.989 391.851C148.399 391.847 148.802 391.951 149.159 392.152C149.516 392.354 149.813 392.646 150.021 392.999C150.229 393.352 150.341 393.753 150.344 394.163Z" fill="black"/>
<path d="M131.033 371.16V448.994H128.091C125.463 448.828 122.903 448.083 120.596 446.814L109.977 440.728C107.613 439.369 106.315 437.685 106.122 435.991V371.16H131.033Z" fill="#9980FF"/>
<path opacity="0.3" d="M131.033 371.16V448.994H128.091C125.463 448.828 122.903 448.083 120.596 446.814L109.977 440.728C107.613 439.369 106.315 437.685 106.122 435.991V371.16H131.033Z" fill="black"/>
<path d="M218.858 312.403C214.344 310.618 208.563 310.669 205.044 312.698L131.002 355.418L108.82 368.239C106.985 369.253 106.082 370.713 106.082 372.204C106.082 373.989 107.39 375.886 109.956 377.357L120.586 383.544C122.856 384.796 125.373 385.534 127.96 385.704C128.972 385.794 129.99 385.794 131.002 385.704C132.875 385.607 134.701 385.09 136.348 384.193L232.561 328.591C234.407 327.577 235.299 326.126 235.299 324.635V304.969L218.858 312.403Z" fill="#9980FF"/>
<path opacity="0.7" d="M218.858 312.403C214.344 310.618 208.563 310.669 205.044 312.698L131.002 355.418L108.82 368.239C106.985 369.253 106.082 370.713 106.082 372.204C106.082 373.989 107.39 375.886 109.956 377.357L120.586 383.544C122.856 384.796 125.373 385.534 127.96 385.704C128.972 385.794 129.99 385.794 131.002 385.704C132.875 385.607 134.701 385.09 136.348 384.193L232.561 328.591C234.407 327.577 235.299 326.126 235.299 324.635V304.969L218.858 312.403Z" fill="white"/>
<path d="M131.033 352.102V385.694H127.99C125.394 385.531 122.866 384.797 120.586 383.544L109.967 377.408C107.4 375.937 106.092 374.04 106.092 372.255V352.102H131.033Z" fill="#9980FF"/>
<path opacity="0.5" d="M131.033 352.102V385.694H127.99C125.394 385.531 122.866 384.797 120.586 383.544L109.967 377.408C107.4 375.937 106.092 374.04 106.092 372.255V352.102H131.033Z" fill="white"/>
<path d="M232.56 308.783L136.347 364.334C132.29 366.677 125.191 366.362 120.555 363.685L109.926 357.548C105.26 354.85 104.753 350.763 108.8 348.42L205.013 292.869C209.07 290.536 216.17 290.84 220.805 293.528L231.425 299.614C236.131 302.403 236.618 306.46 232.56 308.783Z" fill="#9980FF"/>
<path opacity="0.6" d="M232.56 308.783L136.347 364.334C132.29 366.677 125.191 366.362 120.555 363.685L109.926 357.548C105.26 354.85 104.753 350.763 108.8 348.42L205.013 292.869C209.07 290.536 216.17 290.84 220.805 293.528L231.425 299.614C236.131 302.403 236.618 306.46 232.56 308.783Z" fill="white"/>
<path d="M227.083 350.256L217.235 344.535C211.22 340.854 202.812 341.259 193.491 346.635C175.234 357.183 160.406 382.844 160.406 403.951C160.406 413.637 163.53 420.666 168.672 424.429C169.515 425.05 170.419 425.584 171.37 426.021L179.19 430.616L181.107 427.401C185.488 426.837 189.704 425.373 193.491 423.1C211.748 412.552 226.586 386.891 226.586 365.794C226.65 361.868 226.021 357.961 224.73 354.252L227.083 350.256Z" fill="#9980FF"/>
<path opacity="0.5" d="M227.083 350.256L217.235 344.535C211.22 340.854 202.812 341.259 193.491 346.635C175.234 357.183 160.406 382.844 160.406 403.951C160.406 413.637 163.53 420.666 168.672 424.429C169.515 425.05 170.419 425.584 171.37 426.021L179.19 430.616L181.107 427.401C185.488 426.837 189.704 425.373 193.491 423.1C211.748 412.552 226.586 386.891 226.586 365.794C226.65 361.868 226.021 357.961 224.73 354.252L227.083 350.256Z" fill="black"/>
<path d="M226.061 403.649C238.984 381.266 238.983 357.072 226.06 349.61C213.136 342.149 192.184 354.246 179.261 376.629C166.338 399.012 166.338 423.206 179.262 430.667C192.185 438.128 213.138 426.032 226.061 403.649Z" fill="#9980FF"/>
<path opacity="0.2" d="M226.061 403.649C238.984 381.266 238.983 357.072 226.06 349.61C213.136 342.149 192.184 354.246 179.261 376.629C166.338 399.012 166.338 423.206 179.262 430.667C192.185 438.128 213.138 426.032 226.061 403.649Z" fill="black"/>
<path d="M230.755 362.853L222.763 358.187C217.884 355.195 211.048 355.53 203.492 359.891C188.653 368.462 176.634 389.305 176.634 406.416C176.634 414.276 179.17 419.986 183.338 423.039C184.028 423.54 184.765 423.972 185.539 424.327L191.889 428.06L193.44 425.453C196.993 424.973 200.408 423.764 203.471 421.903C218.3 413.343 230.329 392.49 230.329 375.379C230.377 372.195 229.869 369.027 228.828 366.017L230.755 362.853Z" fill="#9980FF"/>
<path opacity="0.4" d="M230.755 362.853L222.763 358.187C217.884 355.195 211.048 355.53 203.492 359.891C188.653 368.462 176.634 389.305 176.634 406.416C176.634 414.276 179.17 419.986 183.338 423.039C184.028 423.54 184.765 423.972 185.539 424.327L191.889 428.06L193.44 425.453C196.993 424.973 200.408 423.764 203.471 421.903C218.3 413.343 230.329 392.49 230.329 375.379C230.377 372.195 229.869 369.027 228.828 366.017L230.755 362.853Z" fill="black"/>
<path d="M229.92 406.196C240.409 388.029 240.41 368.392 229.922 362.337C219.434 356.282 202.428 366.101 191.939 384.268C181.45 402.436 181.449 422.072 191.938 428.128C202.426 434.183 219.431 424.364 229.92 406.196Z" fill="#9980FF"/>
<path opacity="0.6" d="M222.726 402.043C229.241 390.759 229.241 378.563 222.726 374.801C216.21 371.04 205.648 377.138 199.133 388.421C192.618 399.705 192.619 411.902 199.134 415.663C205.649 419.425 216.212 413.327 222.726 402.043Z" fill="black"/>
<path d="M209.699 376.748C201.473 382.195 194.911 393.545 194.313 403.393C196.26 406.132 199.881 406.649 204.029 404.245C210.247 400.654 215.318 391.922 215.318 384.741C215.318 379.943 213.046 377.073 209.699 376.748Z" fill="#9980FF"/>
<path opacity="0.8" d="M209.699 376.748C201.473 382.195 194.911 393.545 194.313 403.393C196.26 406.132 199.881 406.649 204.029 404.245C210.247 400.654 215.318 391.922 215.318 384.741C215.318 379.943 213.046 377.073 209.699 376.748Z" fill="black"/>
<path d="M209.618 385.867C209.561 386.921 209.255 387.948 208.726 388.863C208.198 389.777 207.461 390.554 206.575 391.131C204.901 392.145 203.532 391.313 203.532 389.376C203.592 388.32 203.898 387.293 204.427 386.377C204.955 385.461 205.691 384.682 206.575 384.102C208.218 383.138 209.618 383.919 209.618 385.867Z" fill="#FAFAFA"/>
<path d="M138.325 402.115C138.325 402.274 138.278 402.429 138.19 402.561C138.101 402.693 137.975 402.796 137.828 402.856C137.681 402.917 137.52 402.932 137.364 402.9C137.208 402.868 137.066 402.791 136.954 402.678C136.842 402.565 136.767 402.421 136.737 402.265C136.707 402.109 136.725 401.948 136.787 401.801C136.849 401.655 136.953 401.531 137.086 401.444C137.219 401.357 137.375 401.312 137.534 401.314C137.639 401.314 137.743 401.335 137.839 401.375C137.936 401.415 138.024 401.475 138.097 401.549C138.171 401.624 138.229 401.712 138.268 401.809C138.307 401.906 138.327 402.01 138.325 402.115Z" fill="#9980FF"/>
<path d="M141.936 399.924C141.936 400.083 141.889 400.238 141.8 400.37C141.712 400.502 141.586 400.605 141.439 400.665C141.292 400.726 141.13 400.741 140.975 400.709C140.819 400.677 140.676 400.6 140.565 400.487C140.453 400.374 140.377 400.23 140.348 400.074C140.318 399.918 140.335 399.757 140.397 399.61C140.46 399.464 140.564 399.34 140.697 399.253C140.83 399.166 140.986 399.121 141.145 399.123C141.25 399.123 141.353 399.144 141.45 399.184C141.547 399.224 141.634 399.284 141.708 399.358C141.782 399.433 141.84 399.521 141.879 399.618C141.918 399.715 141.937 399.819 141.936 399.924Z" fill="#9980FF"/>
<path d="M145.547 397.875C145.549 398.035 145.503 398.191 145.416 398.324C145.329 398.458 145.204 398.562 145.057 398.624C144.91 398.686 144.748 398.702 144.592 398.672C144.435 398.641 144.292 398.565 144.179 398.452C144.066 398.339 143.99 398.196 143.959 398.039C143.929 397.883 143.945 397.721 144.007 397.574C144.069 397.427 144.173 397.302 144.307 397.215C144.44 397.128 144.596 397.082 144.756 397.084C144.965 397.084 145.167 397.168 145.315 397.316C145.463 397.464 145.547 397.666 145.547 397.875Z" fill="#9980FF"/>
<path d="M137.534 407.47C137.971 407.47 138.325 407.116 138.325 406.679C138.325 406.242 137.971 405.888 137.534 405.888C137.097 405.888 136.743 406.242 136.743 406.679C136.743 407.116 137.097 407.47 137.534 407.47Z" fill="#9980FF"/>
<path d="M141.936 404.488C141.938 404.648 141.893 404.804 141.805 404.937C141.718 405.071 141.593 405.175 141.446 405.237C141.299 405.299 141.137 405.315 140.981 405.285C140.825 405.254 140.681 405.178 140.568 405.065C140.456 404.952 140.379 404.809 140.349 404.652C140.318 404.496 140.335 404.334 140.397 404.187C140.458 404.04 140.563 403.915 140.696 403.828C140.829 403.741 140.986 403.695 141.145 403.697C141.355 403.697 141.556 403.781 141.704 403.929C141.853 404.077 141.936 404.279 141.936 404.488Z" fill="#9980FF"/>
<path d="M145.547 402.45C145.547 402.609 145.5 402.764 145.411 402.896C145.323 403.028 145.197 403.131 145.05 403.191C144.903 403.251 144.741 403.267 144.586 403.235C144.43 403.203 144.287 403.126 144.175 403.013C144.064 402.9 143.988 402.756 143.959 402.6C143.929 402.444 143.946 402.282 144.008 402.136C144.07 401.99 144.175 401.865 144.308 401.779C144.441 401.692 144.597 401.646 144.756 401.649C144.86 401.648 144.964 401.669 145.061 401.71C145.158 401.75 145.245 401.809 145.319 401.884C145.392 401.958 145.45 402.047 145.49 402.144C145.529 402.241 145.548 402.345 145.547 402.45Z" fill="#9980FF"/>
<path d="M137.534 412.035C137.971 412.035 138.325 411.68 138.325 411.243C138.325 410.806 137.971 410.452 137.534 410.452C137.097 410.452 136.743 410.806 136.743 411.243C136.743 411.68 137.097 412.035 137.534 412.035Z" fill="#9980FF"/>
<path d="M141.145 409.844C141.582 409.844 141.936 409.49 141.936 409.053C141.936 408.616 141.582 408.261 141.145 408.261C140.708 408.261 140.354 408.616 140.354 409.053C140.354 409.49 140.708 409.844 141.145 409.844Z" fill="#9980FF"/>
<path d="M145.547 407.014C145.549 407.173 145.503 407.329 145.416 407.463C145.329 407.596 145.204 407.7 145.057 407.762C144.91 407.824 144.748 407.841 144.592 407.81C144.435 407.78 144.292 407.703 144.179 407.591C144.066 407.478 143.99 407.334 143.959 407.178C143.929 407.021 143.945 406.859 144.007 406.713C144.069 406.566 144.173 406.441 144.307 406.354C144.44 406.266 144.596 406.221 144.756 406.223C144.965 406.223 145.167 406.306 145.315 406.454C145.463 406.603 145.547 406.804 145.547 407.014Z" fill="#9980FF"/>
<path d="M137.534 416.609C137.971 416.609 138.325 416.255 138.325 415.818C138.325 415.381 137.971 415.027 137.534 415.027C137.097 415.027 136.743 415.381 136.743 415.818C136.743 416.255 137.097 416.609 137.534 416.609Z" fill="#9980FF"/>
<path d="M141.145 414.418C141.582 414.418 141.936 414.064 141.936 413.627C141.936 413.19 141.582 412.836 141.145 412.836C140.708 412.836 140.354 413.19 140.354 413.627C140.354 414.064 140.708 414.418 141.145 414.418Z" fill="#9980FF"/>
<path d="M145.547 411.578C145.549 411.737 145.503 411.894 145.416 412.027C145.329 412.16 145.204 412.265 145.057 412.326C144.91 412.388 144.748 412.405 144.592 412.375C144.435 412.344 144.292 412.267 144.179 412.155C144.066 412.042 143.99 411.898 143.959 411.742C143.929 411.586 143.945 411.424 144.007 411.277C144.069 411.13 144.173 411.005 144.307 410.918C144.44 410.83 144.596 410.785 144.756 410.787C144.965 410.787 145.167 410.87 145.315 411.019C145.463 411.167 145.547 411.368 145.547 411.578Z" fill="#9980FF"/>
<path d="M138.325 420.382C138.303 420.578 138.21 420.758 138.063 420.889C137.916 421.021 137.726 421.093 137.529 421.093C137.332 421.093 137.142 421.021 136.995 420.889C136.848 420.758 136.755 420.578 136.733 420.382C136.72 420.27 136.731 420.156 136.766 420.049C136.8 419.941 136.856 419.842 136.931 419.758C137.007 419.674 137.099 419.607 137.202 419.561C137.305 419.514 137.416 419.491 137.529 419.491C137.642 419.491 137.753 419.514 137.856 419.561C137.959 419.607 138.051 419.674 138.127 419.758C138.202 419.842 138.258 419.941 138.293 420.049C138.327 420.156 138.338 420.27 138.325 420.382Z" fill="#9980FF"/>
<path d="M141.145 418.982C141.582 418.982 141.936 418.628 141.936 418.191C141.936 417.754 141.582 417.4 141.145 417.4C140.708 417.4 140.354 417.754 140.354 418.191C140.354 418.628 140.708 418.982 141.145 418.982Z" fill="#9980FF"/>
<path d="M145.547 416.152C145.547 416.311 145.5 416.467 145.411 416.599C145.323 416.731 145.197 416.833 145.05 416.894C144.903 416.954 144.741 416.969 144.586 416.937C144.43 416.906 144.287 416.828 144.175 416.715C144.064 416.602 143.988 416.459 143.959 416.302C143.929 416.146 143.946 415.985 144.008 415.839C144.07 415.692 144.175 415.568 144.308 415.481C144.441 415.394 144.597 415.349 144.756 415.351C144.86 415.351 144.964 415.372 145.061 415.412C145.158 415.453 145.245 415.512 145.319 415.586C145.392 415.661 145.45 415.749 145.49 415.847C145.529 415.944 145.548 416.048 145.547 416.152Z" fill="#9980FF"/>
<path d="M137.534 425.737C137.971 425.737 138.325 425.383 138.325 424.946C138.325 424.509 137.971 424.155 137.534 424.155C137.097 424.155 136.743 424.509 136.743 424.946C136.743 425.383 137.097 425.737 137.534 425.737Z" fill="#9980FF"/>
<path d="M141.936 422.755C141.938 422.915 141.893 423.071 141.805 423.204C141.718 423.338 141.593 423.442 141.446 423.504C141.299 423.566 141.137 423.582 140.981 423.552C140.825 423.521 140.681 423.445 140.568 423.332C140.456 423.219 140.379 423.076 140.349 422.919C140.318 422.763 140.335 422.601 140.397 422.454C140.458 422.307 140.563 422.182 140.696 422.095C140.829 422.008 140.986 421.962 141.145 421.964C141.355 421.964 141.556 422.048 141.704 422.196C141.853 422.344 141.936 422.545 141.936 422.755Z" fill="#9980FF"/>
<path d="M145.547 420.717C145.549 420.876 145.503 421.032 145.416 421.166C145.329 421.299 145.204 421.403 145.057 421.465C144.91 421.527 144.748 421.544 144.592 421.513C144.435 421.482 144.292 421.406 144.179 421.293C144.066 421.181 143.99 421.037 143.959 420.881C143.929 420.724 143.945 420.562 144.007 420.415C144.069 420.269 144.173 420.144 144.307 420.056C144.44 419.969 144.596 419.923 144.756 419.925C144.965 419.925 145.167 420.009 145.315 420.157C145.463 420.306 145.547 420.507 145.547 420.717Z" fill="#9980FF"/>
<path d="M137.534 430.311C137.971 430.311 138.325 429.957 138.325 429.52C138.325 429.083 137.971 428.729 137.534 428.729C137.097 428.729 136.743 429.083 136.743 429.52C136.743 429.957 137.097 430.311 137.534 430.311Z" fill="#9980FF"/>
<path d="M141.936 427.33C141.936 427.489 141.889 427.644 141.8 427.776C141.712 427.908 141.586 428.011 141.439 428.071C141.292 428.131 141.13 428.146 140.975 428.115C140.819 428.083 140.676 428.006 140.565 427.893C140.453 427.779 140.377 427.636 140.348 427.48C140.318 427.324 140.335 427.162 140.397 427.016C140.46 426.87 140.564 426.745 140.697 426.658C140.83 426.572 140.986 426.526 141.145 426.528C141.25 426.528 141.353 426.549 141.45 426.59C141.547 426.63 141.634 426.689 141.708 426.764C141.782 426.838 141.84 426.927 141.879 427.024C141.918 427.121 141.937 427.225 141.936 427.33Z" fill="#9980FF"/>
<path d="M145.547 425.281C145.549 425.44 145.503 425.596 145.416 425.73C145.329 425.863 145.204 425.967 145.057 426.029C144.91 426.091 144.748 426.108 144.592 426.077C144.435 426.047 144.292 425.97 144.179 425.857C144.066 425.745 143.99 425.601 143.959 425.445C143.929 425.288 143.945 425.126 144.007 424.98C144.069 424.833 144.173 424.708 144.307 424.62C144.44 424.533 144.596 424.488 144.756 424.49C144.965 424.49 145.167 424.573 145.315 424.721C145.463 424.87 145.547 425.071 145.547 425.281Z" fill="#9980FF"/>
<path d="M196.29 317.678L193.055 318.175L183.49 312.647L167.07 322.13L156.927 323.672V327.962L167.212 333.896C170.254 335.65 174.849 335.843 177.486 334.322L194.465 324.514C194.948 324.296 195.366 323.956 195.677 323.527C195.988 323.099 196.182 322.596 196.24 322.069L196.29 317.678Z" fill="#9980FF"/>
<path opacity="0.2" d="M196.29 317.678L193.055 318.175L183.49 312.647L167.07 322.13L156.927 323.672V327.962L167.212 333.896C170.254 335.65 174.849 335.843 177.486 334.322L194.465 324.514C194.948 324.296 195.366 323.956 195.677 323.527C195.988 323.099 196.182 322.596 196.24 322.069L196.29 317.678Z" fill="black"/>
<path d="M194.505 320.223L177.527 330.031C174.889 331.553 170.295 331.36 167.252 329.605L156.967 323.702L183.49 308.387L193.775 314.32C196.818 316.045 197.142 318.702 194.505 320.223Z" fill="#9980FF"/>
<path d="M188.856 314.148L186.543 314.503L179.697 310.547L167.942 317.333L160.72 318.438V321.481L168.074 325.721C169.189 326.347 170.436 326.702 171.714 326.755C172.992 326.807 174.264 326.557 175.427 326.025L187.598 319.016C187.942 318.857 188.24 318.612 188.462 318.305C188.684 317.998 188.823 317.638 188.866 317.262L188.856 314.148Z" fill="#9980FF"/>
<path opacity="0.2" d="M188.856 314.148L186.543 314.503L179.697 310.547L167.942 317.333L160.72 318.438V321.481L168.074 325.721C169.189 326.347 170.436 326.702 171.714 326.755C172.992 326.807 174.264 326.557 175.427 326.025L187.598 319.016C187.942 318.857 188.24 318.612 188.462 318.305C188.684 317.998 188.823 317.638 188.866 317.262L188.856 314.148Z" fill="black"/>
<path d="M187.578 315.974L175.407 322.982C174.244 323.515 172.972 323.765 171.694 323.712C170.416 323.659 169.168 323.305 168.053 322.678L160.7 318.438L179.697 307.474L187.051 311.724C189.231 312.982 189.464 314.878 187.578 315.974Z" fill="#9980FF"/>
<path d="M142.535 349.475C142.545 349.323 142.545 349.17 142.535 349.018V342.537H121.357V349.536C121.468 351.006 122.493 352.447 124.399 353.593C126.723 354.768 129.291 355.381 131.895 355.381C134.499 355.381 137.067 354.768 139.39 353.593C141.338 352.467 142.352 351.027 142.433 349.536L142.535 349.475Z" fill="#9980FF"/>
<path opacity="0.2" d="M142.535 349.475C142.545 349.323 142.545 349.17 142.535 349.018V342.537H121.357V349.536C121.468 351.006 122.493 352.447 124.399 353.593C126.723 354.768 129.291 355.381 131.895 355.381C134.499 355.381 137.067 354.768 139.39 353.593C141.338 352.467 142.352 351.027 142.433 349.536L142.535 349.475Z" fill="black"/>
<path d="M139.451 338.206C143.589 340.6 143.589 344.474 139.451 346.858C137.129 348.038 134.561 348.653 131.956 348.653C129.351 348.653 126.783 348.038 124.46 346.858C120.322 344.474 120.322 340.6 124.46 338.206C126.783 337.026 129.351 336.411 131.956 336.411C134.561 336.411 137.129 337.026 139.451 338.206Z" fill="#9980FF"/>
<path d="M202.254 306.206V303.417H193.745V306.237C193.805 306.587 193.948 306.918 194.164 307.2C194.379 307.483 194.66 307.709 194.982 307.859C195.917 308.33 196.948 308.574 197.994 308.574C199.041 308.574 200.072 308.33 201.007 307.859C201.328 307.708 201.608 307.481 201.823 307.199C202.038 306.916 202.183 306.586 202.244 306.237L202.254 306.206Z" fill="#9980FF"/>
<path opacity="0.2" d="M202.254 306.206V303.417H193.745V306.237C193.805 306.587 193.948 306.918 194.164 307.2C194.379 307.483 194.66 307.709 194.982 307.859C195.917 308.33 196.948 308.574 197.994 308.574C199.041 308.574 200.072 308.33 201.007 307.859C201.328 307.708 201.608 307.481 201.823 307.199C202.038 306.916 202.183 306.586 202.244 306.237L202.254 306.206Z" fill="black"/>
<path d="M201.017 301.683C202.68 302.646 202.68 304.198 201.017 305.162C200.082 305.632 199.051 305.876 198.005 305.876C196.958 305.876 195.927 305.632 194.992 305.162C193.329 304.147 193.329 302.646 194.992 301.683C195.925 301.208 196.958 300.96 198.005 300.96C199.052 300.96 200.084 301.208 201.017 301.683Z" fill="#9980FF"/>
<path d="M221.454 305.446C221.464 305.321 221.464 305.195 221.454 305.07V299.756H204.1V305.496C204.219 306.212 204.512 306.887 204.952 307.464C205.392 308.04 205.967 308.5 206.626 308.803C208.529 309.768 210.633 310.271 212.767 310.271C214.901 310.271 217.005 309.768 218.908 308.803C219.565 308.498 220.137 308.037 220.575 307.461C221.014 306.885 221.305 306.21 221.424 305.496L221.454 305.446Z" fill="#9980FF"/>
<path opacity="0.2" d="M221.454 305.446C221.464 305.321 221.464 305.195 221.454 305.07V299.756H204.1V305.496C204.219 306.212 204.512 306.887 204.952 307.464C205.392 308.04 205.967 308.5 206.626 308.803C208.529 309.768 210.633 310.271 212.767 310.271C214.901 310.271 217.005 309.768 218.908 308.803C219.565 308.498 220.137 308.037 220.575 307.461C221.014 306.885 221.305 306.21 221.424 305.496L221.454 305.446Z" fill="black"/>
<path d="M205.794 301.023V308.215C205.558 308.049 205.343 307.855 205.155 307.636V301.023H205.794Z" fill="#9980FF"/>
<path d="M208.218 301.023V309.503C208 309.433 207.786 309.348 207.579 309.249V301.013L208.218 301.023Z" fill="#9980FF"/>
<path d="M210.663 301.023V310.101C210.447 310.082 210.234 310.048 210.024 310V301.023H210.663Z" fill="#9980FF"/>
<path d="M213.097 301.023V310.253H212.468V301.023H213.097Z" fill="#9980FF"/>
<path d="M215.541 301.023V310C215.334 310.047 215.124 310.081 214.912 310.101V301.023H215.541Z" fill="#9980FF"/>
<path d="M217.975 301.023V309.259C217.772 309.358 217.562 309.443 217.347 309.513V301.023H217.975Z" fill="#9980FF"/>
<path d="M220.389 301.023V307.647C220.199 307.853 219.989 308.04 219.76 308.204V301.023H220.389Z" fill="#9980FF"/>
<path d="M218.929 296.206C222.316 298.163 222.316 301.338 218.929 303.306C217.025 304.271 214.921 304.773 212.787 304.773C210.653 304.773 208.549 304.271 206.646 303.306C203.248 301.338 203.248 298.163 206.646 296.206C208.549 295.241 210.653 294.738 212.787 294.738C214.921 294.738 217.025 295.241 218.929 296.206Z" fill="#9980FF"/>
<path opacity="0.2" d="M212.782 301.936C214.872 301.936 216.566 300.96 216.566 299.756C216.566 298.551 214.872 297.575 212.782 297.575C210.693 297.575 208.999 298.551 208.999 299.756C208.999 300.96 210.693 301.936 212.782 301.936Z" fill="black"/>
<path d="M411.821 403.545C411.821 403.545 417.816 400.198 418.576 396.445C419.337 392.693 412.744 384.102 412.744 384.102C412.744 384.102 407.825 386.921 411.821 403.545Z" fill="#9980FF"/>
<path opacity="0.2" d="M411.821 403.545C411.821 403.545 417.816 400.198 418.576 396.445C419.337 392.693 412.744 384.102 412.744 384.102C412.744 384.102 407.825 386.921 411.821 403.545Z" fill="black"/>
<path d="M338.419 415.118L347.172 409.955L348.318 401.202L345.306 400.492L338.419 415.118Z" fill="#9980FF"/>
<path opacity="0.3" d="M338.419 415.118L347.172 409.955L348.318 401.202L345.306 400.492L338.419 415.118Z" fill="black"/>
<path d="M390.207 364.77L398.382 377.823L403.839 395.898C403.839 395.898 413.89 394.65 407.561 371.444L402.835 357.447L390.207 364.77Z" fill="#945959"/>
<path d="M336.695 369.648L338.419 390.451L332.394 406.365C332.394 406.365 335.437 413.83 344.88 398.048C349.89 389.68 350.063 388.017 350.063 388.017L352.091 369.648H336.695Z" fill="#945959"/>
<path d="M344.495 167.059L341.452 173.145C341.407 173.233 341.382 173.33 341.379 173.429C341.375 173.527 341.392 173.626 341.43 173.717C341.467 173.808 341.524 173.891 341.596 173.958C341.668 174.026 341.754 174.077 341.847 174.109L345.499 175.326L344.495 167.059Z" fill="#703838"/>
<path d="M348.754 156.856C348.754 156.856 344.129 159.392 344.129 173.774C344.129 181.695 344.677 186.736 348.795 186.432C352.913 186.128 364.749 184.566 364.749 184.566V156.856H348.754Z" fill="#945959"/>
<path d="M348.754 186.432C350.195 186.32 352.598 186.057 355.104 185.762V184.292C352.845 185.264 350.484 185.979 348.065 186.422C348.294 186.446 348.525 186.449 348.754 186.432Z" fill="#703838"/>
<path d="M354.404 183.673V192.72H366.768V180.012L354.404 183.673Z" fill="#FFA8A7"/>
<path d="M375.572 215.43L383.605 231.932L377.6 239.823L381.769 253.921L394.68 238.707C395.806 237.386 396.552 235.785 396.839 234.074C397.127 232.363 396.945 230.606 396.313 228.99C392.763 219.862 385.684 201.859 383.767 198.674C381.191 194.374 378.107 192.081 373.482 192.223C368.857 192.365 375.572 215.43 375.572 215.43Z" fill="#945959"/>
<path d="M379.446 242.561C381.312 248.16 385.38 256.031 385.207 282.503C385.096 301.003 385.268 311.409 385.38 315.974C385.416 317.614 386.06 319.182 387.185 320.375C389.142 322.404 392.5 326.786 395.654 335.062C398.476 342.376 400.874 349.847 402.835 357.437C402.835 357.437 400.533 364.902 390.207 364.76L364.415 323.246C363.377 321.585 362.709 319.721 362.457 317.779L355.672 266.214V245.127L379.446 242.561Z" fill="#37474F"/>
<path d="M361.078 307.565L368.259 281.854C368.259 281.854 378.34 271.6 374.75 253.921L359.536 273.101L360.307 302.382L361.078 307.565Z" fill="#263238"/>
<path d="M337.415 243.981C336.989 252.298 332.465 304.086 333.115 319.148C333.764 334.21 336.695 369.648 336.695 369.648C336.695 369.648 346.452 373.705 352.051 369.648C352.051 369.648 354.414 355.692 355.956 344.637C356.898 338.931 356.702 333.095 355.378 327.465C354.835 325.404 354.835 323.238 355.378 321.177L366.362 278.983C366.362 278.983 375.856 272.32 375.856 253.921V240.107L337.415 243.981Z" fill="#37474F"/>
<path d="M363.816 186.371L344.129 193.623C344.129 193.623 334.869 201.656 334.869 217.012C334.869 221.312 339.038 225.187 339.038 225.187C339.038 225.187 337.598 238.666 337.456 243.981C337.456 243.981 347.598 251.081 366.413 248.282C373.178 247.267 379.487 242.541 379.487 242.541C379.487 242.541 376.616 230.633 376.19 229.487C375.764 228.341 380.247 214.425 380.247 203.38L363.816 186.371Z" fill="#9980FF"/>
<path d="M346.351 160.061C346.351 160.061 347.142 167.029 351.584 168.926C351.584 168.926 348.065 173.754 353.298 175.873V172.141L355.489 176.411C355.489 176.411 349.322 201.372 360.013 201.372C361.864 201.402 363.664 200.765 365.084 199.577C365.084 199.577 366.727 206.109 376.626 206.109C386.526 206.109 388.392 196.422 388.392 196.422C388.392 196.422 381.799 198.451 381.799 191.544C381.799 184.637 381.292 162.566 380.937 159.199C380.268 155.672 378.473 152.457 375.821 150.037C373.169 147.617 369.804 146.124 366.23 145.78C358.522 144.867 348.511 144.928 342.77 152.88C337.03 160.832 345.255 163.023 345.255 163.023C345.255 163.023 345.387 162.8 346.351 160.061Z" fill="#263238"/>
<path d="M353.258 172.141C353.258 172.141 352.923 166.055 357.639 166.522C363.056 167.059 361.331 176.847 354.729 176.847L353.258 172.141Z" fill="#945959"/>
<path d="M344.129 193.623C332.09 197.447 309.198 209.547 309.198 209.547L288.254 191.047L280.393 199.506C286.875 208.184 294.252 216.156 302.403 223.29C303.702 224.435 305.293 225.197 306.999 225.493C308.705 225.788 310.46 225.605 312.069 224.964C316.268 223.29 322.211 220.968 326.654 219.304C334.403 216.434 350.753 212.417 350.753 203.522C350.753 194.627 344.129 193.623 344.129 193.623Z" fill="#945959"/>
<path d="M350.063 388.017C348.559 388.262 347.134 388.855 345.901 389.75C344.668 390.645 343.662 391.816 342.963 393.169C340.661 397.764 336.36 410.675 332.344 406.355L333.703 402.754C333.703 402.754 317.657 406.273 321.532 410.472C325.406 414.672 337.415 416.558 338.419 415.108C339.423 413.657 344.88 403.342 344.88 403.342L347.923 417.116C348.36 417.496 348.92 417.706 349.5 417.706C350.08 417.706 350.64 417.496 351.077 417.116C351.077 417.116 354.972 390.745 350.063 388.017Z" fill="#9980FF"/>
<path d="M403.839 395.897C403.839 395.897 407.561 394.315 406.993 389.447C406.425 384.578 402.693 374.851 407.561 371.444C409.722 369.932 414.519 376.515 418.576 384.426C422.633 392.337 423.78 394.569 423.78 394.569C423.78 394.569 423.323 396.668 421.477 396.597L412.582 387.418C412.007 390.221 412.108 393.121 412.876 395.877C414.164 400.178 414.337 402.683 409.651 404.772C404.965 406.862 392.134 409.712 398.991 401.04C402.399 396.729 403.839 395.897 403.839 395.897Z" fill="#9980FF"/>
<path d="M288.416 192.264C288.908 189.343 289.586 186.457 290.444 183.622C291.388 181.188 291.804 179.119 289.491 180.042C287.179 180.965 285.353 185.113 285.191 185.641C285.191 185.641 273.435 171.725 271.812 171.867C270.19 172.009 270.403 173.987 273.527 178.237L276.64 182.497C276.64 182.497 268.415 186.381 269.297 191.412C270.179 196.443 280.342 199.526 280.342 199.526L288.416 192.264Z" fill="#945959"/>
</svg>
